# WaveFront *.obj file (generated by Autodesk ATF)

mtllib rig.mtl

g Body1

v 1467.026487 -5586.559486 -647.699990
v 1467.026487 -5625.025967 -647.699990
v 1467.026487 -5625.025967 647.699990
v 1467.026487 -5586.559486 647.699990
v 1467.026487 -5586.559486 431.799994
v 1467.026487 -5586.559486 -431.799994
v 1673.684323 -5625.025967 -647.699990
v 1673.684323 -5625.025967 647.699990
v 1673.684323 -5586.214175 -647.699990
v 1673.684323 -5586.214175 -431.799994
v 1673.684323 -5586.214175 431.799994
v 1673.684323 -5586.214175 647.699990
v 2399.437285 -5585.001492 -647.699990
v 2399.437285 -5585.001492 -431.799994
v -202.877164 -5589.349778 -431.799994
v -202.877164 -5589.349778 -647.699990
v 2399.437285 -5585.001492 431.799994
v 2399.437285 -5585.001492 647.699990
v -202.877164 -5589.349778 647.699990
v -202.877164 -5589.349778 431.799994
v -202.877164 -5625.025967 -647.699990
v -202.877164 -5625.025967 647.699990
v 9.845804 -5625.025967 -647.699990
v 9.845804 -5625.025967 647.699990
v 9.845804 -5589.349778 -647.699990
v 9.845804 -5589.349778 647.699990
v 4063.396216 -5618.252768 -647.699990
v 4276.117997 -5617.541879 -647.699990
v 4276.117997 -5617.541879 647.699990
v 4063.396216 -5618.252768 647.699990
v 4275.998772 -5581.865890 -647.699990
v 4275.998772 -5581.865890 -431.799994
v 4275.998772 -5581.865890 431.799994
v 4275.998772 -5581.865890 647.699990
v 4063.276992 -5582.576778 -647.699990
v 4063.276992 -5582.576778 647.699990
v 2606.095121 -5584.656182 -431.799994
v 2606.095121 -5584.656182 -647.699990
v 2606.095121 -5584.656182 647.699990
v 2606.095121 -5584.656182 431.799994
v 2399.566989 -5623.813067 -647.699990
v 2399.566989 -5623.813067 647.699990
v 2606.223670 -5623.122448 -647.699990
v 2606.223670 -5623.122448 647.699990
v 5655.002613 -5579.561671 -647.699990
v 5655.002613 -5579.561671 -431.799994
v -1581.881004 -5591.653996 -431.799994
v -1581.881004 -5591.653996 -647.699990
v 5655.002613 -5579.561671 431.799994
v 5655.002613 -5579.561671 647.699990
v -1581.881004 -5591.653996 647.699990
v -1581.881004 -5591.653996 431.799994
v -32.717759 -20.223082 -50.799999
v -32.717759 -20.223082 50.799999
v -24.296431 7.405636 50.799999
v -24.296431 7.405636 -50.799999
v 15.875102 -35.034354 -50.799999
v 24.296431 -7.405636 -50.799999
v 15.875102 -35.034354 50.799999
v 24.296431 -7.405636 50.799999
v -7219.419934 -5562.763591 -12.700000
v -7194.019935 -5562.763591 -12.700000
v -7194.019935 -5580.746249 -12.700000
v -7219.419934 -5580.746249 -12.700000
v -7219.419934 -5562.763591 12.700000
v -7219.419934 -5580.746249 12.700000
v -7194.019935 -5562.763591 12.700000
v -7194.019935 -5580.746249 12.700000
v -7254.435186 -5277.699962 433.499686
v -7093.570248 -5277.699962 433.499686
v -7093.570248 -5277.699962 -433.499686
v -7254.435186 -5277.699962 -433.499686
v -7093.570248 -5562.763591 433.499686
v -7093.570248 -5562.763591 -433.499686
v -7253.958865 -5562.763591 433.499686
v -7253.958865 -5562.763591 -433.499686
v -7253.958417 -5563.031588 -433.499686
v -1907.054763 -5268.764864 433.499686
v -1906.577994 -5554.096490 433.499686
v -132.719097 -220.523303 -457.199994
v 145.522774 -305.332383 -457.199994
v 145.522774 -305.332383 457.199994
v -132.719097 -220.523303 457.199994
v 3662.042029 -4897.387075 -457.199994
v -475.497101 -2342.776161 -457.199994
v -475.497101 -2342.776161 -622.299990
v 3662.042029 -4897.387075 -622.299990
v 3662.635716 -5252.690320 -457.199994
v 3662.635716 -5252.690320 -622.299990
v 4190.485026 -4896.504084 -457.199994
v 4191.078713 -5251.807329 -457.199994
v 4191.078713 -5251.807329 -622.299990
v 4190.485026 -4896.504084 -622.299990
v -369.600064 -1995.348860 -457.199994
v -369.600064 -1995.348860 -622.299990
v 209.885940 -94.169525 -622.299990
v 209.885940 -94.169525 622.299990
v -369.600064 -1995.348860 622.299990
v -369.600064 -1995.348860 457.199994
v -68.355931 -9.360445 -622.299990
v -68.355931 -9.360445 622.299990
v -1465.127066 -4591.891174 -457.199994
v -1465.127066 -4591.891174 457.199994
v -1465.127066 -4591.891174 622.299990
v -1465.127066 -4591.891174 -622.299990
v -1583.551207 -4592.089052 -457.199994
v -1583.551207 -4592.089052 -622.299990
v -1582.475186 -5236.054498 -622.299990
v -1582.475186 -5236.054498 -457.199994
v -1069.130871 -4591.229492 -457.199994
v -1068.012408 -5260.594902 -457.199994
v -1068.012408 -5260.594902 -622.299990
v -1069.130871 -4591.229492 -622.299990
v -1160.880142 -4591.382798 -457.199994
v -1160.880142 -4591.382798 -622.299990
v -1582.432745 -5261.454462 -622.299990
v -1582.432745 -5261.454462 -457.199994
v -1582.432745 -5261.454462 -431.799994
v 5654.450872 -5249.362137 -431.799994
v 5654.450872 -5249.362137 431.799994
v -1582.432745 -5261.454462 431.799994
v -1582.432745 -5261.454462 457.199994
v -1068.012408 -5260.594902 457.199994
v -1068.012408 -5260.594902 622.299990
v -1582.432745 -5261.454462 622.299990
v -1582.432745 -5261.454462 647.699990
v 5663.373356 -5249.347228 647.699990
v 5663.373356 -5249.347228 -647.699990
v -1582.432745 -5261.454462 -647.699990
v 4191.078713 -5251.807329 457.199994
v 4191.078713 -5251.807329 622.299990
v 3662.635716 -5252.690320 622.299990
v 3662.635716 -5252.690320 457.199994
v -475.497101 -2342.776161 457.199994
v 3662.042029 -4897.387075 457.199994
v 3662.042029 -4897.387075 622.299990
v -475.497101 -2342.776161 622.299990
v 4190.485026 -4896.504084 457.199994
v 4190.485026 -4896.504084 622.299990
v -1583.551207 -4592.089052 457.199994
v -1583.551207 -4592.089052 622.299990
v -1582.475186 -5236.054498 457.199994
v -1582.475186 -5236.054498 622.299990
v -1069.130871 -4591.229492 457.199994
v -1069.130871 -4591.229492 622.299990
v -1160.880142 -4591.382798 457.199994
v -1160.880142 -4591.382798 622.299990
v 5025.994106 -4792.665601 -647.699990
v 4453.223622 -4461.976408 -647.699990
v 4453.223622 -4461.976408 647.699990
v 5025.994106 -4792.665601 647.699990
v 4453.223622 -3800.598022 -647.699990
v 4453.223622 -3800.598022 647.699990
v 5025.994106 -3469.908828 -647.699990
v 5025.994106 -3469.908828 647.699990
v 6205.398101 -5254.948011 -647.699990
v 6239.900886 -5254.948011 -647.699990
v 6239.900886 -5254.948011 647.699990
v 6205.398101 -5254.948011 647.699990
v 6306.079863 -4903.241563 -647.699990
v 6306.079863 -4903.241563 647.699990
v 6306.079863 -4242.841573 -647.699990
v 6306.079863 -4242.841573 647.699990
v 6229.879864 -3887.241578 -647.699990
v 6229.879864 -3887.241578 647.699990
v 5663.373356 -3792.477138 -647.699990
v 5663.373356 -3792.477138 647.699990
v 5663.373356 -3763.296133 -647.699990
v 5663.373356 -3763.296133 647.699990
v 5598.764590 -3800.598022 -647.699990
v 5598.764590 -3800.598022 647.699990
v 5598.764590 -4461.976408 -647.699990
v 5598.764590 -4461.976408 647.699990
v 5025.994106 -3395.305051 -647.699990
v 5025.994106 -3395.305051 647.699990
v 4388.614856 -3763.296133 -647.699990
v 4388.614856 -3763.296133 647.699990
v 4388.614856 -4499.278296 -647.699990
v 4388.614856 -4499.278296 647.699990
v 5025.994106 -4867.269378 -647.699990
v 5025.994106 -4867.269378 647.699990
v 5663.373356 -4499.278296 -647.699990
v 5663.373356 -4499.278296 647.699990
v 6206.016180 -5624.849333 647.699990
v 6206.016180 -5624.849333 -647.699990
v 5655.079823 -5625.769909 647.699990
v 5655.079823 -5625.769909 -647.699990
v -1907.054763 -5268.764864 -622.299991
v -1906.577994 -5554.096490 -622.299991
v -7253.958417 -5563.031588 -622.299991
v -7254.435186 -5277.699962 -622.299991
v -1907.054763 -5268.764864 -433.499686
v -1906.577994 -5554.096490 -433.499686
v -7253.958417 -5563.031588 433.499686
v -7253.958417 -5563.031588 622.299991
v -7254.435186 -5277.699962 622.299991
v -1907.054763 -5268.764864 622.299991
v -1906.577994 -5554.096490 622.299991
v -1907.108514 -5236.596938 660.399990
v -1906.471890 -5617.596400 660.399990
v -1581.838563 -5617.053961 660.399990
v -1582.475186 -5236.054498 660.399990
v -1907.108514 -5236.596938 -660.399990
v -1582.475186 -5236.054498 -660.399990
v -1906.471890 -5617.596400 -660.399990
v -1581.838563 -5617.053961 -660.399990
vt 3.846648 129.539998 0.000000
vt 0.000000 129.539998 0.000000
vt 3.846648 107.949998 0.000000
vt 0.000000 0.000000 0.000000
vt 3.846648 21.590000 0.000000
vt 3.846648 -0.000000 0.000000
vt 20.665784 129.539998 0.000000
vt 0.000000 129.539998 0.000000
vt 20.665784 -0.000000 0.000000
vt 0.000000 0.000000 0.000000
vt -0.000000 129.539998 0.000000
vt -0.000000 107.949998 0.000000
vt 3.881179 129.539998 0.000000
vt 3.881179 0.000000 0.000000
vt -0.000000 21.590000 0.000000
vt 0.000000 0.000000 0.000000
vt 20.665812 107.949998 0.000000
vt -0.000000 107.949998 0.000000
vt 20.665812 21.590000 0.000000
vt -0.000000 21.590000 0.000000
vt 107.949998 325.556987 0.000000
vt 129.539998 325.556987 0.000000
vt 107.949998 398.132385 0.000000
vt 129.539998 398.132385 0.000000
vt 129.539998 304.891175 0.000000
vt 107.949998 304.891175 0.000000
vt 129.539998 137.900577 0.000000
vt 107.949998 137.900577 0.000000
vt -0.000000 325.556987 0.000000
vt 21.590000 325.556987 0.000000
vt -0.000000 398.132385 0.000000
vt 21.590000 398.132385 0.000000
vt 21.590000 304.891175 0.000000
vt -0.000000 304.891175 0.000000
vt 21.590000 137.900577 0.000000
vt -0.000000 137.900577 0.000000
vt 3.567619 129.539998 0.000000
vt 0.000000 129.539998 0.000000
vt 3.567619 107.949998 0.000000
vt 0.000000 0.000000 0.000000
vt 3.567619 21.590000 0.000000
vt 3.567619 -0.000000 0.000000
vt 21.272297 129.539998 0.000000
vt 0.000000 129.539998 0.000000
vt 21.272297 -0.000000 0.000000
vt 0.000000 0.000000 0.000000
vt 3.567619 129.539998 0.000000
vt -0.000000 129.539998 0.000000
vt 3.567619 0.000000 0.000000
vt 0.000000 0.000000 0.000000
vt 0.000000 129.539998 0.000000
vt 0.000000 107.949998 0.000000
vt 21.272297 129.539998 0.000000
vt 21.272297 0.000000 0.000000
vt 0.000000 21.590000 0.000000
vt 0.000000 0.000000 0.000000
vt -10.636148 -1.783809 0.000000
vt 10.636148 -1.783809 0.000000
vt -10.636148 1.783809 0.000000
vt 10.636148 1.783809 0.000000
vt 1.409615 -202.677461 0.000000
vt -2.158004 -202.677461 0.000000
vt 1.409615 -223.949758 0.000000
vt -2.158004 -223.949758 0.000000
vt 21.272297 129.539998 0.000000
vt -0.000000 129.539998 0.000000
vt 21.272297 0.000000 0.000000
vt 0.000000 0.000000 0.000000
vt -0.000000 129.539998 0.000000
vt -0.000000 107.949998 0.000000
vt 3.567619 129.539998 0.000000
vt 3.567619 0.000000 0.000000
vt -0.000000 21.590000 0.000000
vt 0.000000 0.000000 0.000000
vt 21.272297 129.539998 0.000000
vt 0.000000 129.539998 0.000000
vt 21.272297 107.949998 0.000000
vt 0.000000 0.000000 0.000000
vt 21.272297 21.590000 0.000000
vt 21.272297 -0.000000 0.000000
vt 3.567619 129.539998 0.000000
vt 0.000000 129.539998 0.000000
vt 3.567619 -0.000000 0.000000
vt 0.000000 0.000000 0.000000
vt 10.630128 1.819344 0.000000
vt -10.642050 1.748255 0.000000
vt 10.642050 -1.748255 0.000000
vt -10.630128 -1.819344 0.000000
vt 2.158004 223.937836 0.000000
vt -1.409595 223.949758 0.000000
vt 2.086915 202.665658 0.000000
vt -1.480684 202.677580 0.000000
vt 129.539998 585.788795 0.000000
vt 107.949998 585.788795 0.000000
vt 129.539998 418.798197 0.000000
vt 107.949998 418.798197 0.000000
vt 21.590000 585.788795 0.000000
vt -0.000000 585.788795 0.000000
vt 21.590000 418.798197 0.000000
vt -0.000000 418.798197 0.000000
vt 20.665812 107.949998 0.000000
vt -0.000000 107.949998 0.000000
vt 20.665812 21.590000 0.000000
vt -0.000000 21.590000 0.000000
vt 3.881179 129.539998 0.000000
vt 0.000000 129.539998 0.000000
vt 3.881179 107.949998 0.000000
vt 0.000000 0.000000 0.000000
vt 3.881179 21.590000 0.000000
vt 3.881179 -0.000000 0.000000
vt 20.665784 129.539998 0.000000
vt -0.000000 129.539998 0.000000
vt 20.665784 0.000000 0.000000
vt 0.000000 0.000000 0.000000
vt -0.000000 129.539998 0.000000
vt -0.000000 107.949998 0.000000
vt 3.846648 129.539998 0.000000
vt 3.846648 0.000000 0.000000
vt -0.000000 21.590000 0.000000
vt 0.000000 0.000000 0.000000
vt 107.949998 585.788795 0.000000
vt 129.539998 585.788795 0.000000
vt 107.949998 723.689372 0.000000
vt 129.539998 723.689372 0.000000
vt 129.539998 137.900577 0.000000
vt 107.949998 137.900577 0.000000
vt 129.539998 0.000000 0.000000
vt 107.949998 0.000000 0.000000
vt -0.000000 585.788795 0.000000
vt 21.590000 585.788795 0.000000
vt -0.000000 723.689372 0.000000
vt 21.590000 723.689372 0.000000
vt 21.590000 137.900577 0.000000
vt -0.000000 137.900577 0.000000
vt 21.590000 0.000000 0.000000
vt 0.000000 0.000000 0.000000
vt 0.000000 0.000000 0.000000
vt 10.160000 -0.000000 0.000000
vt -0.000000 2.888364 0.000000
vt 10.160000 2.888364 0.000000
vt 0.000000 0.000000 0.000000
vt 5.080000 -0.000000 0.000000
vt 0.000000 2.888364 0.000000
vt 5.080000 2.888364 0.000000
vt 0.000000 0.000000 0.000000
vt 10.160000 -0.000000 0.000000
vt 0.000000 2.888364 0.000000
vt 10.160000 2.888364 0.000000
vt 0.000000 0.000000 0.000000
vt 5.080000 0.000000 0.000000
vt 0.000000 2.888364 0.000000
vt 5.080000 2.888364 0.000000
vt -2.540000 -5.080000 0.000000
vt 2.540000 -5.080000 0.000000
vt -2.540000 5.080000 0.000000
vt 2.540000 5.080000 0.000000
vt 0.000000 0.000000 0.000000
vt 2.540000 0.000000 0.000000
vt 0.000000 1.798266 0.000000
vt 2.540000 1.798266 0.000000
vt 0.000000 0.000000 0.000000
vt 2.540000 -0.000000 0.000000
vt -0.000000 1.798266 0.000000
vt 2.540000 1.798266 0.000000
vt 0.000000 0.000000 0.000000
vt 2.540000 0.000000 0.000000
vt -0.000000 1.798266 0.000000
vt 2.540000 1.798266 0.000000
vt 0.000000 0.000000 0.000000
vt 2.540000 0.000000 0.000000
vt 0.000000 1.798266 0.000000
vt 2.540000 1.798266 0.000000
vt -1.270000 -1.270000 0.000000
vt 1.270000 -1.270000 0.000000
vt -1.270000 1.270000 0.000000
vt 1.270000 1.270000 0.000000
vt 16.086494 86.699937 0.000000
vt 0.000000 86.699937 0.000000
vt 16.086494 0.000000 0.000000
vt 0.000000 0.000000 0.000000
vt 28.506363 86.699937 0.000000
vt -0.000000 86.699937 0.000000
vt 28.506363 -0.000000 0.000000
vt 0.000000 0.000000 0.000000
vt 3.453893 42.079969 0.000000
vt 0.000000 0.000000 0.000000
vt 5.993893 42.079969 0.000000
vt 16.038862 0.000000 0.000000
vt 5.993893 44.619969 0.000000
vt 16.038862 86.699937 0.000000
vt 0.000000 86.699937 0.000000
vt 3.453893 44.619969 0.000000
vt 0.000000 518.699949 0.000000
vt 0.026800 534.738789 0.000000
vt 0.000000 534.738789 0.000000
vt 28.533202 518.699949 0.000000
vt 0.026879 518.652317 0.000000
vt 28.533202 -0.000000 0.000000
vt 0.000000 0.000000 0.000000
vt -0.000000 534.738789 0.000000
vt 29.087990 91.439999 0.000000
vt -0.000000 91.439999 0.000000
vt 29.087990 -0.000000 0.000000
vt 0.000000 0.000000 0.000000
vt 0.000000 16.510000 0.000000
vt -486.263992 16.510000 0.000000
vt -0.000000 0.000000 0.000000
vt -486.263992 -0.000000 0.000000
vt 0.000000 16.510000 0.000000
vt -35.530374 16.510000 0.000000
vt -0.000000 0.000000 0.000000
vt -35.530374 0.000000 0.000000
vt -0.000000 16.510000 0.000000
vt -35.530374 16.510000 0.000000
vt -0.000000 0.000000 0.000000
vt -35.530374 -0.000000 0.000000
vt -0.000000 16.510000 0.000000
vt -540.472734 16.510000 0.000000
vt -0.000000 0.000000 0.000000
vt -540.472734 -0.000000 0.000000
vt -198.753287 16.510000 0.000000
vt -198.753287 0.000000 0.000000
vt -22.075409 16.510000 0.000000
vt -0.000000 0.000000 0.000000
vt -22.075409 107.949998 0.000000
vt 0.000000 124.459998 0.000000
vt -198.753287 124.459998 0.000000
vt -198.753287 107.949998 0.000000
vt -3.725689 57.149999 0.000000
vt -0.000000 0.000000 0.000000
vt -3.725689 67.309999 0.000000
vt -0.000000 124.459998 0.000000
vt -8.805689 67.309999 0.000000
vt -29.087990 124.459998 0.000000
vt -29.087990 -0.000000 0.000000
vt -8.805689 57.149999 0.000000
vt 0.000000 16.510000 0.000000
vt -456.991992 16.510000 0.000000
vt -0.000000 0.000000 0.000000
vt -479.067401 0.000000 0.000000
vt -456.991992 107.949998 0.000000
vt -479.067401 124.459998 0.000000
vt 0.000000 124.459998 0.000000
vt 0.000000 107.949998 0.000000
vt 0.000000 16.510000 0.000000
vt -11.842431 16.510000 0.000000
vt -0.000000 0.000000 0.000000
vt -11.842431 0.000000 0.000000
vt -2.540000 16.510000 0.000000
vt -66.936634 16.510000 0.000000
vt -2.540000 0.000000 0.000000
vt -66.936634 0.000000 0.000000
vt -0.000000 16.510000 0.000000
vt -66.936634 16.510000 0.000000
vt -0.000000 0.000000 0.000000
vt -66.936634 -0.000000 0.000000
vt 0.000000 16.510000 0.000000
vt -9.174940 16.510000 0.000000
vt -0.000000 0.000000 0.000000
vt -9.174940 0.000000 0.000000
vt -0.000000 16.510000 0.000000
vt -235.074067 16.510000 0.000000
vt -0.000000 -0.000000 0.000000
vt -235.074067 -0.000000 0.000000
vt 109.387781 254.123793 0.000000
vt 167.336382 64.005859 0.000000
vt 137.211968 262.604701 0.000000
vt 177.926085 29.263129 0.000000
vt 276.889082 -195.648372 0.000000
vt 246.464389 -195.597534 0.000000
vt 288.623894 -260.064704 0.000000
vt 237.177616 -262.518745 0.000000
vt 288.619650 -262.604701 0.000000
vt -235.827828 -226.197962 0.000000
vt -288.672127 -226.109663 0.000000
vt -288.731496 -261.639987 0.000000
vt -235.887196 -261.728287 0.000000
vt 237.289462 -195.582204 0.000000
vt 288.731496 -195.668160 0.000000
vt -233.007507 -115.824098 0.000000
vt -241.488415 -143.648285 0.000000
vt -64.005859 -167.336382 0.000000
vt -29.263129 -177.926085 0.000000
vt 226.197962 235.827828 0.000000
vt 195.648372 -276.889082 0.000000
vt 195.597534 -246.464389 0.000000
vt 260.064704 -288.623894 0.000000
vt 262.518745 -237.177616 0.000000
vt 262.604701 -288.619650 0.000000
vt 195.668160 -288.731496 0.000000
vt 195.582204 -237.289462 0.000000
vt 261.728287 235.887196 0.000000
vt 261.639987 288.731496 0.000000
vt 226.109663 288.672127 0.000000
vt -105.409998 -0.000000 0.000000
vt -105.409998 51.442105 0.000000
vt -107.949998 0.000000 0.000000
vt -105.409998 524.507578 0.000000
vt -107.949998 724.581621 0.000000
vt -105.409998 577.351952 0.000000
vt -86.359999 723.689372 0.000000
vt -88.899999 577.351952 0.000000
vt -88.899999 524.507578 0.000000
vt -88.899999 51.442105 0.000000
vt -86.359999 0.000000 0.000000
vt -88.899999 -0.000000 0.000000
vt 0.000000 723.689372 0.000000
vt 21.590000 724.581621 0.000000
vt 19.050000 577.351952 0.000000
vt 19.050000 524.507578 0.000000
vt 0.000000 0.000000 0.000000
vt 2.540000 524.507578 0.000000
vt 2.540000 577.351952 0.000000
vt 2.540000 -0.000000 0.000000
vt 2.540000 51.442105 0.000000
vt 19.050000 51.442105 0.000000
vt 21.590000 -0.000000 0.000000
vt 19.050000 -0.000000 0.000000
vt 486.263992 16.510000 0.000000
vt 0.000000 16.510000 0.000000
vt 486.263992 0.000000 0.000000
vt 0.000000 0.000000 0.000000
vt 35.530374 16.510000 0.000000
vt 0.000000 16.510000 0.000000
vt 35.530374 -0.000000 0.000000
vt 0.000000 0.000000 0.000000
vt 35.530374 16.510000 0.000000
vt -0.000000 16.510000 0.000000
vt 35.530374 0.000000 0.000000
vt 0.000000 0.000000 0.000000
vt 540.472734 16.510000 0.000000
vt 0.000000 16.510000 0.000000
vt 540.472734 0.000000 0.000000
vt 0.000000 0.000000 0.000000
vt 11.842431 16.510000 0.000000
vt 0.000000 16.510000 0.000000
vt 11.842431 -0.000000 0.000000
vt 0.000000 0.000000 0.000000
vt 2.540000 -0.000000 0.000000
vt 66.936634 -0.000000 0.000000
vt 2.540000 16.510000 0.000000
vt 66.936634 16.510000 0.000000
vt 66.936634 16.510000 0.000000
vt -0.000000 16.510000 0.000000
vt 66.936634 0.000000 0.000000
vt 0.000000 0.000000 0.000000
vt 9.174940 16.510000 0.000000
vt 0.000000 16.510000 0.000000
vt 9.174940 -0.000000 0.000000
vt 0.000000 0.000000 0.000000
vt 235.074067 16.510000 0.000000
vt 0.000000 16.510000 0.000000
vt 235.074067 0.000000 0.000000
vt 0.000000 0.000000 0.000000
vt -109.387781 254.123793 0.000000
vt -137.211968 262.604701 0.000000
vt -167.336382 64.005859 0.000000
vt -177.926085 29.263129 0.000000
vt 235.827828 -226.197962 0.000000
vt -276.889082 -195.648372 0.000000
vt -246.464389 -195.597534 0.000000
vt -288.623894 -260.064704 0.000000
vt -237.177616 -262.518745 0.000000
vt -288.619650 -262.604701 0.000000
vt -288.731496 -195.668160 0.000000
vt -237.289462 -195.582204 0.000000
vt 235.887196 -261.728287 0.000000
vt 288.731496 -261.639987 0.000000
vt 288.672127 -226.109663 0.000000
vt 233.007507 -115.824098 0.000000
vt 64.005859 -167.336382 0.000000
vt 241.488415 -143.648285 0.000000
vt 29.263129 -177.926085 0.000000
vt -195.648372 -276.889082 0.000000
vt -195.597534 -246.464389 0.000000
vt -260.064704 -288.623894 0.000000
vt -262.518745 -237.177616 0.000000
vt -262.604701 -288.619650 0.000000
vt -226.197962 235.827828 0.000000
vt -226.109663 288.672127 0.000000
vt -261.639987 288.731496 0.000000
vt -261.728287 235.887196 0.000000
vt -195.582204 -237.289462 0.000000
vt -195.668160 -288.731496 0.000000
vt 66.137839 129.539998 0.000000
vt -0.000000 129.539998 0.000000
vt 66.137839 0.000000 0.000000
vt 0.000000 0.000000 0.000000
vt 66.137839 129.539998 0.000000
vt -0.000000 129.539998 0.000000
vt 66.137839 0.000000 0.000000
vt 0.000000 0.000000 0.000000
vt 66.137839 129.539998 0.000000
vt -0.000000 129.539998 0.000000
vt 66.137839 -0.000000 0.000000
vt 0.000000 -0.000000 0.000000
vt 3.450278 129.539998 0.000000
vt 0.000000 129.539998 0.000000
vt 3.450278 0.000000 0.000000
vt 0.000000 -0.000000 0.000000
vt 35.787859 129.539998 0.000000
vt -0.000000 129.539998 0.000000
vt 35.787859 0.000000 0.000000
vt 0.000000 0.000000 0.000000
vt 66.039999 129.539998 0.000000
vt -0.000000 129.539998 0.000000
vt 66.039999 0.000000 0.000000
vt 0.000000 0.000000 0.000000
vt 36.367265 129.539998 0.000000
vt -0.000000 129.539998 0.000000
vt 36.367265 -0.000000 0.000000
vt 0.000000 0.000000 0.000000
vt 57.437786 129.539998 0.000000
vt -0.000000 129.539998 0.000000
vt 57.437786 0.000000 0.000000
vt 0.000000 0.000000 0.000000
vt 2.918100 129.539998 0.000000
vt -0.000000 129.539998 0.000000
vt 2.918100 0.000000 0.000000
vt 0.000000 0.000000 0.000000
vt 66.137839 129.539998 0.000000
vt 0.000000 129.539998 0.000000
vt 66.137839 0.000000 0.000000
vt 0.000000 0.000000 0.000000
vt 66.137839 129.539998 0.000000
vt 0.000000 129.539998 0.000000
vt 66.137839 -0.000000 0.000000
vt 0.000000 0.000000 0.000000
vt 66.137839 129.539998 0.000000
vt 0.000000 129.539998 0.000000
vt 66.137839 -0.000000 0.000000
vt 0.000000 0.000000 0.000000
vt 73.598216 129.539998 0.000000
vt -0.000000 129.539998 0.000000
vt 73.598216 -0.000000 0.000000
vt 0.000000 0.000000 0.000000
vt 73.598216 129.539998 0.000000
vt 0.000000 129.539998 0.000000
vt 73.598216 0.000000 0.000000
vt 0.000000 0.000000 0.000000
vt 73.598216 129.539998 0.000000
vt 0.000000 129.539998 0.000000
vt 73.598216 -0.000000 0.000000
vt 0.000000 0.000000 0.000000
vt 73.598216 129.539998 0.000000
vt 0.000000 129.539998 0.000000
vt 73.598216 0.000000 0.000000
vt 0.000000 0.000000 0.000000
vt 73.598216 129.539998 0.000000
vt -0.000000 129.539998 0.000000
vt 73.598216 -0.000000 0.000000
vt 0.000000 0.000000 0.000000
vt 75.006893 129.539998 0.000000
vt 0.000000 129.539998 0.000000
vt 75.006893 -0.000000 0.000000
vt 0.000000 0.000000 0.000000
vt -15.859354 -64.769999 0.000000
vt 21.130830 -64.769999 0.000000
vt -15.859354 64.769999 0.000000
vt 21.130830 64.769999 0.000000
vt 27.546856 64.769999 0.000000
vt -27.546856 64.769999 0.000000
vt 27.546856 -64.769999 0.000000
vt -27.546856 -64.769999 0.000000
vt 43.179999 16.510000 0.000000
vt -43.179999 16.510000 0.000000
vt 43.179999 -16.510000 0.000000
vt -43.179999 -16.510000 0.000000
vt 64.769999 -21.130830 0.000000
vt -64.769999 -21.130830 0.000000
vt -64.769999 -16.510000 0.000000
vt 64.769999 -16.510000 0.000000
vt 211.070093 661.141117 0.000000
vt 181.624902 724.829930 0.000000
vt 177.905514 718.362829 0.000000
vt 178.706805 724.825054 0.000000
vt 169.135715 781.459791 0.000000
vt 178.096925 603.808892 0.000000
vt 181.837905 597.354258 0.000000
vt 218.530460 661.153582 0.000000
vt 108.239791 597.231280 0.000000
vt 111.959179 603.698381 0.000000
vt 78.794600 660.920094 0.000000
vt 111.767767 718.252318 0.000000
vt 108.026788 724.706952 0.000000
vt 71.334233 660.907628 0.000000
vt 133.563033 789.020362 0.000000
vt 0.000000 0.000000 0.000000
vt 33.020000 -0.000000 0.000000
vt 0.000000 137.900576 0.000000
vt 0.000000 304.891175 0.000000
vt 0.000000 325.556987 0.000000
vt -3.846643 304.884747 0.000000
vt -3.881174 325.550502 0.000000
vt 0.000000 398.132385 0.000000
vt 33.020000 724.581621 0.000000
vt 0.000000 418.798197 0.000000
vt -0.000000 585.788795 0.000000
vt 0.000000 723.689372 0.000000
vt 32.369354 778.783084 0.000000
vt -4.620830 778.783084 0.000000
vt 67.523126 788.910014 0.000000
vt 32.363588 782.233358 0.000000
vt -4.620830 723.689372 0.000000
vt -3.846643 418.804625 0.000000
vt -3.881174 398.138870 0.000000
vt 33.019999 723.689372 0.000000
vt -0.000000 723.689372 0.000000
vt 33.019999 585.788796 0.000000
vt 33.019999 418.798197 0.000000
vt 33.019999 398.132385 0.000000
vt 0.000000 0.000000 0.000000
vt 33.019999 325.556987 0.000000
vt 33.019999 304.891175 0.000000
vt 33.019999 137.900577 0.000000
vt 33.019999 0.000000 0.000000
vt 0.000000 723.689372 0.000000
vt 0.000000 585.788796 0.000000
vt 33.020000 723.689372 0.000000
vt 0.000000 418.798197 0.000000
vt 0.000000 398.132385 0.000000
vt 33.020000 -0.000000 0.000000
vt 0.000000 325.556987 0.000000
vt 0.000000 304.891175 0.000000
vt 0.000000 137.900577 0.000000
vt 0.000000 0.000000 0.000000
vt -178.050093 661.141117 0.000000
vt -148.817905 597.354258 0.000000
vt -145.076926 603.808892 0.000000
vt -75.219791 597.231280 0.000000
vt -78.939179 603.698381 0.000000
vt -45.774600 660.920094 0.000000
vt -38.314233 660.907628 0.000000
vt -75.006788 724.706952 0.000000
vt -144.885514 718.362829 0.000000
vt -148.604902 724.829930 0.000000
vt -185.510460 661.153582 0.000000
vt -78.747768 718.252318 0.000000
vt -100.543033 789.020362 0.000000
vt -136.115716 781.459791 0.000000
vt -145.686806 724.825054 0.000000
vt 0.000000 0.000000 0.000000
vt 33.020000 398.132385 0.000000
vt -0.000000 724.581621 0.000000
vt 33.020000 418.798197 0.000000
vt 33.020000 585.788795 0.000000
vt 33.020000 0.000000 0.000000
vt 33.020000 137.900576 0.000000
vt 33.020000 304.891175 0.000000
vt 33.020000 325.556987 0.000000
vt 36.866642 304.884747 0.000000
vt 36.901173 325.550502 0.000000
vt 36.901173 398.138870 0.000000
vt 36.866642 418.804625 0.000000
vt 33.020000 723.689372 0.000000
vt 0.650646 778.783084 0.000000
vt -34.503127 788.910014 0.000000
vt 0.656411 782.233358 0.000000
vt 37.640830 723.689372 0.000000
vt 37.640830 778.783084 0.000000
vt 0.000000 0.000000 0.000000
vt 28.533202 -0.000000 0.000000
vt 0.000000 534.738789 0.000000
vt 28.533202 534.738789 0.000000
vt 0.000000 -0.000000 0.000000
vt 18.880030 -0.000000 0.000000
vt -0.000000 534.738789 0.000000
vt 18.880030 534.738789 0.000000
vt 0.000000 518.699949 0.000000
vt 0.000000 0.000000 0.000000
vt 28.506323 518.652317 0.000000
vt 28.533202 0.000000 0.000000
vt 28.533202 534.738789 0.000000
vt 18.880030 0.000000 0.000000
vt 18.880030 518.699950 0.000000
vt 0.000000 0.000000 0.000000
vt 0.000000 534.738789 0.000000
vt 18.880030 534.738789 0.000000
vt -14.266601 -9.440015 0.000000
vt -14.239801 -9.440015 0.000000
vt -14.266601 9.440015 0.000000
vt 14.266601 9.440015 0.000000
vt 14.266601 -9.440015 0.000000
vt 14.266601 -96.139952 0.000000
vt -14.239801 -96.139952 0.000000
vt 14.266601 -115.019983 0.000000
vt -14.266601 -115.019983 0.000000
vt -14.266601 -96.139952 0.000000
vt 28.506403 534.738789 0.000000
vt 28.533202 518.699949 0.000000
vt 28.533202 534.738789 0.000000
vt -0.000000 0.000000 0.000000
vt 18.880030 -0.000000 0.000000
vt -0.000000 534.738789 0.000000
vt 18.880030 534.738789 0.000000
vt 0.000000 0.000000 0.000000
vt 28.533202 0.000000 0.000000
vt 0.000000 534.738789 0.000000
vt 28.533202 534.738789 0.000000
vt 0.000000 0.000000 0.000000
vt 18.880030 0.000000 0.000000
vt 0.000000 518.699950 0.000000
vt 18.880030 534.738789 0.000000
vt 0.000000 534.738789 0.000000
vt 0.000000 0.000000 0.000000
vt 38.099999 0.000000 0.000000
vt -0.000000 32.463378 0.000000
vt 38.099999 32.463378 0.000000
vt 132.079998 -0.000000 0.000000
vt 20.320000 32.463378 0.000000
vt 0.000000 0.000000 0.000000
vt 3.810000 32.463378 0.000000
vt 0.000000 32.463378 0.000000
vt 132.079998 32.463378 0.000000
vt 128.269998 32.463378 0.000000
vt 111.759998 32.463378 0.000000
vt 0.000000 0.000000 0.000000
vt 38.099999 -0.000000 0.000000
vt 0.000000 32.463378 0.000000
vt 38.099999 32.463378 0.000000
vt 0.000000 0.000000 0.000000
vt 132.079998 0.000000 0.000000
vt -0.000000 32.463378 0.000000
vt 132.079998 32.463378 0.000000
vt -62.229999 15.833203 0.000000
vt -66.039999 19.050000 0.000000
vt -62.229999 -12.700000 0.000000
vt -66.039999 -19.050000 0.000000
vt -43.349969 -12.700000 0.000000
vt 66.039999 -19.050000 0.000000
vt 43.349969 -12.700000 0.000000
vt 62.229999 -12.700000 0.000000
vt 66.039999 19.050000 0.000000
vt 62.229999 15.833203 0.000000
vt 43.349969 15.833203 0.000000
vt -43.349969 15.833203 0.000000
vt 19.050000 66.039999 0.000000
vt 16.510000 43.179999 0.000000
vt 19.050000 -66.039999 0.000000
vt 16.510000 -43.179999 0.000000
vt 16.510000 -64.769999 0.000000
vt 16.510000 64.769999 0.000000
vt -19.050000 66.039999 0.000000
vt -16.510000 64.769999 0.000000
vt -19.050000 62.229999 0.000000
vt -16.510000 62.229999 0.000000
vt -16.510000 43.179999 0.000000
vt -16.510000 -43.179999 0.000000
vt -19.050000 -45.719999 0.000000
vt -16.510000 -45.719999 0.000000
vt -16.510000 45.719999 0.000000
vt -19.050000 45.719999 0.000000
vt -16.510000 -64.769999 0.000000
vt -19.050000 -66.039999 0.000000
vt -19.050000 -62.229999 0.000000
vt -16.510000 -62.229999 0.000000
vn -0.100000 0.000000 -0.000000
vn -0.100000 0.000000 -0.000000
vn -0.100000 0.000000 -0.000000
vn -0.100000 0.000000 -0.000000
vn -0.100000 0.000000 -0.000000
vn -0.100000 0.000000 -0.000000
vn 0.000000 -0.100000 0.000000
vn 0.000000 -0.100000 0.000000
vn 0.000000 -0.100000 0.000000
vn 0.000000 -0.100000 0.000000
vn 0.100000 0.000000 0.000000
vn 0.100000 0.000000 0.000000
vn 0.100000 0.000000 0.000000
vn 0.100000 0.000000 0.000000
vn 0.100000 0.000000 0.000000
vn 0.100000 0.000000 0.000000
vn -0.000167 0.100000 -0.000000
vn -0.000167 0.100000 -0.000000
vn -0.000167 0.100000 -0.000000
vn -0.000167 0.100000 -0.000000
vn 0.000167 -0.100000 0.000000
vn 0.000167 -0.100000 0.000000
vn 0.000167 -0.100000 0.000000
vn 0.000167 -0.100000 0.000000
vn 0.000167 -0.100000 0.000000
vn 0.000167 -0.100000 0.000000
vn 0.000167 -0.100000 0.000000
vn 0.000167 -0.100000 0.000000
vn 0.000167 -0.100000 0.000000
vn 0.000167 -0.100000 0.000000
vn 0.000167 -0.100000 0.000000
vn 0.000167 -0.100000 0.000000
vn 0.000167 -0.100000 0.000000
vn 0.000167 -0.100000 0.000000
vn 0.000167 -0.100000 0.000000
vn 0.000167 -0.100000 0.000000
vn -0.100000 0.000000 -0.000000
vn -0.100000 0.000000 -0.000000
vn -0.100000 0.000000 -0.000000
vn -0.100000 0.000000 -0.000000
vn -0.100000 0.000000 -0.000000
vn -0.100000 0.000000 -0.000000
vn 0.000000 -0.100000 0.000000
vn 0.000000 -0.100000 0.000000
vn 0.000000 -0.100000 0.000000
vn 0.000000 -0.100000 0.000000
vn 0.100000 0.000000 0.000000
vn 0.100000 0.000000 0.000000
vn 0.100000 0.000000 0.000000
vn 0.100000 0.000000 0.000000
vn 0.000000 0.100000 -0.000000
vn 0.000000 0.100000 -0.000000
vn 0.000000 0.100000 -0.000000
vn 0.000000 0.100000 -0.000000
vn 0.000000 0.100000 -0.000000
vn 0.000000 0.100000 -0.000000
vn 0.000000 0.000000 0.100000
vn 0.000000 0.000000 0.100000
vn 0.000000 0.000000 0.100000
vn 0.000000 0.000000 0.100000
vn 0.000000 -0.000000 -0.100000
vn 0.000000 -0.000000 -0.100000
vn 0.000000 -0.000000 -0.100000
vn 0.000000 -0.000000 -0.100000
vn 0.000334 -0.099999 0.000000
vn 0.000334 -0.099999 0.000000
vn 0.000334 -0.099999 0.000000
vn 0.000334 -0.099999 0.000000
vn 0.099999 0.000334 -0.000000
vn 0.099999 0.000334 -0.000000
vn 0.099999 0.000334 -0.000000
vn 0.099999 0.000334 -0.000000
vn 0.099999 0.000334 -0.000000
vn 0.099999 0.000334 -0.000000
vn -0.000334 0.099999 -0.000000
vn -0.000334 0.099999 -0.000000
vn -0.000334 0.099999 -0.000000
vn -0.000334 0.099999 -0.000000
vn -0.000334 0.099999 -0.000000
vn -0.000334 0.099999 -0.000000
vn -0.099999 -0.000334 0.000000
vn -0.099999 -0.000334 0.000000
vn -0.099999 -0.000334 0.000000
vn -0.099999 -0.000334 0.000000
vn 0.000000 0.000000 0.100000
vn 0.000000 0.000000 0.100000
vn 0.000000 0.000000 0.100000
vn 0.000000 0.000000 0.100000
vn 0.000000 -0.000000 -0.100000
vn 0.000000 -0.000000 -0.100000
vn 0.000000 -0.000000 -0.100000
vn 0.000000 -0.000000 -0.100000
vn 0.000167 -0.100000 0.000000
vn 0.000167 -0.100000 0.000000
vn 0.000167 -0.100000 0.000000
vn 0.000167 -0.100000 0.000000
vn 0.000167 -0.100000 0.000000
vn 0.000167 -0.100000 0.000000
vn 0.000167 -0.100000 0.000000
vn 0.000167 -0.100000 0.000000
vn -0.000167 0.100000 -0.000000
vn -0.000167 0.100000 -0.000000
vn -0.000167 0.100000 -0.000000
vn -0.000167 0.100000 -0.000000
vn -0.099999 -0.000334 0.000000
vn -0.099999 -0.000334 0.000000
vn -0.099999 -0.000334 0.000000
vn -0.099999 -0.000334 0.000000
vn -0.099999 -0.000334 0.000000
vn -0.099999 -0.000334 0.000000
vn 0.000334 -0.099999 0.000000
vn 0.000334 -0.099999 0.000000
vn 0.000334 -0.099999 0.000000
vn 0.000334 -0.099999 0.000000
vn 0.099999 0.000334 -0.000000
vn 0.099999 0.000334 -0.000000
vn 0.099999 0.000334 -0.000000
vn 0.099999 0.000334 -0.000000
vn 0.099999 0.000334 -0.000000
vn 0.099999 0.000334 -0.000000
vn 0.000167 -0.100000 0.000000
vn 0.000167 -0.100000 0.000000
vn 0.000167 -0.100000 0.000000
vn 0.000167 -0.100000 0.000000
vn 0.000167 -0.100000 0.000000
vn 0.000167 -0.100000 0.000000
vn 0.000167 -0.100000 0.000000
vn 0.000167 -0.100000 0.000000
vn -0.095655 0.029156 -0.000000
vn -0.095655 0.029156 -0.000000
vn -0.095655 0.029156 -0.000000
vn -0.095655 0.029156 -0.000000
vn 0.000000 -0.000000 -0.100000
vn 0.000000 -0.000000 -0.100000
vn 0.000000 -0.000000 -0.100000
vn 0.000000 -0.000000 -0.100000
vn 0.095655 -0.029156 0.000000
vn 0.095655 -0.029156 0.000000
vn 0.095655 -0.029156 0.000000
vn 0.095655 -0.029156 0.000000
vn 0.000000 0.000000 0.100000
vn 0.000000 0.000000 0.100000
vn 0.000000 0.000000 0.100000
vn 0.000000 0.000000 0.100000
vn 0.029156 0.095655 -0.000000
vn 0.029156 0.095655 -0.000000
vn 0.029156 0.095655 -0.000000
vn 0.029156 0.095655 -0.000000
vn 0.000000 -0.000000 -0.100000
vn 0.000000 -0.000000 -0.100000
vn 0.000000 -0.000000 -0.100000
vn 0.000000 -0.000000 -0.100000
vn -0.100000 0.000000 -0.000000
vn -0.100000 0.000000 -0.000000
vn -0.100000 0.000000 -0.000000
vn -0.100000 0.000000 -0.000000
vn 0.000000 0.000000 0.100000
vn 0.000000 0.000000 0.100000
vn 0.000000 0.000000 0.100000
vn 0.000000 0.000000 0.100000
vn 0.100000 0.000000 0.000000
vn 0.100000 0.000000 0.000000
vn 0.100000 0.000000 0.000000
vn 0.100000 0.000000 0.000000
vn 0.000000 -0.100000 0.000000
vn 0.000000 -0.100000 0.000000
vn 0.000000 -0.100000 0.000000
vn 0.000000 -0.100000 0.000000
vn 0.000000 0.100000 -0.000000
vn 0.000000 0.100000 -0.000000
vn 0.000000 0.100000 -0.000000
vn 0.000000 0.100000 -0.000000
vn 0.100000 0.000000 0.000000
vn 0.100000 0.000000 0.000000
vn 0.100000 0.000000 0.000000
vn 0.100000 0.000000 0.000000
vn -0.000000 -0.100000 0.000000
vn -0.000000 -0.100000 0.000000
vn -0.000000 -0.100000 0.000000
vn -0.000000 -0.100000 0.000000
vn -0.000000 -0.100000 0.000000
vn -0.000000 -0.100000 0.000000
vn -0.000000 -0.100000 0.000000
vn -0.000000 -0.100000 0.000000
vn 0.000000 0.000000 0.100000
vn 0.000000 0.000000 0.100000
vn 0.000000 0.000000 0.100000
vn -0.000000 -0.000000 -0.100000
vn -0.000000 -0.000000 -0.100000
vn -0.000000 -0.000000 -0.100000
vn -0.000000 -0.000000 -0.100000
vn -0.000000 -0.000000 -0.100000
vn -0.029156 -0.095655 0.000000
vn -0.029156 -0.095655 0.000000
vn -0.029156 -0.095655 0.000000
vn -0.029156 -0.095655 0.000000
vn -0.052535 -0.085088 0.000000
vn -0.052535 -0.085088 0.000000
vn -0.052535 -0.085088 0.000000
vn -0.052535 -0.085088 0.000000
vn -0.100000 -0.000167 0.000000
vn -0.100000 -0.000167 0.000000
vn -0.100000 -0.000167 0.000000
vn -0.100000 -0.000167 0.000000
vn 0.100000 0.000167 -0.000000
vn 0.100000 0.000167 -0.000000
vn 0.100000 0.000167 -0.000000
vn 0.100000 0.000167 -0.000000
vn 0.053678 0.084372 -0.000000
vn 0.053678 0.084372 -0.000000
vn 0.053678 0.084372 -0.000000
vn 0.053678 0.084372 -0.000000
vn 0.095655 -0.029156 0.000000
vn 0.095655 -0.029156 0.000000
vn 0.095655 -0.029156 0.000000
vn 0.095655 -0.029156 0.000000
vn 0.095655 -0.029156 0.000000
vn 0.095655 -0.029156 0.000000
vn 0.095655 -0.029156 0.000000
vn 0.095655 -0.029156 0.000000
vn 0.029156 0.095655 -0.000000
vn 0.029156 0.095655 -0.000000
vn 0.029156 0.095655 -0.000000
vn 0.029156 0.095655 -0.000000
vn 0.029156 0.095655 -0.000000
vn 0.029156 0.095655 -0.000000
vn 0.029156 0.095655 -0.000000
vn 0.029156 0.095655 -0.000000
vn -0.095655 0.029156 -0.000000
vn -0.095655 0.029156 -0.000000
vn -0.095655 0.029156 -0.000000
vn -0.095655 0.029156 -0.000000
vn -0.095655 0.029156 -0.000000
vn -0.095655 0.029156 -0.000000
vn -0.095655 0.029156 -0.000000
vn -0.095655 0.029156 -0.000000
vn -0.000167 0.100000 -0.000000
vn -0.000167 0.100000 -0.000000
vn -0.000167 0.100000 -0.000000
vn -0.000167 0.100000 -0.000000
vn -0.100000 -0.000167 0.000000
vn -0.100000 -0.000167 0.000000
vn -0.100000 -0.000167 0.000000
vn -0.100000 -0.000167 0.000000
vn 0.100000 0.000167 -0.000000
vn 0.100000 0.000167 -0.000000
vn 0.100000 0.000167 -0.000000
vn 0.100000 0.000167 -0.000000
vn -0.000167 0.100000 -0.000000
vn -0.000167 0.100000 -0.000000
vn -0.000167 0.100000 -0.000000
vn -0.000167 0.100000 -0.000000
vn 0.095655 -0.029156 0.000000
vn 0.095655 -0.029156 0.000000
vn 0.095655 -0.029156 0.000000
vn 0.095655 -0.029156 0.000000
vn 0.000000 -0.000000 -0.100000
vn 0.000000 -0.000000 -0.100000
vn 0.000000 -0.000000 -0.100000
vn 0.000000 -0.000000 -0.100000
vn 0.000000 -0.000000 -0.100000
vn 0.000000 -0.000000 -0.100000
vn 0.000000 -0.000000 -0.100000
vn 0.000000 -0.000000 -0.100000
vn 0.000000 -0.000000 -0.100000
vn 0.000000 -0.000000 -0.100000
vn 0.000000 -0.000000 -0.100000
vn 0.000000 -0.000000 -0.100000
vn 0.000000 -0.000000 -0.100000
vn 0.000000 -0.000000 -0.100000
vn 0.000000 -0.000000 -0.100000
vn 0.000000 0.000000 0.100000
vn 0.000000 0.000000 0.100000
vn 0.000000 0.000000 0.100000
vn 0.000000 0.000000 0.100000
vn 0.000000 0.000000 0.100000
vn 0.000000 0.000000 0.100000
vn 0.000000 0.000000 0.100000
vn 0.000000 0.000000 0.100000
vn 0.000000 0.000000 0.100000
vn 0.000000 0.000000 0.100000
vn 0.000000 0.000000 0.100000
vn 0.000000 0.000000 0.100000
vn 0.000000 0.000000 0.100000
vn 0.000000 0.000000 0.100000
vn 0.000000 0.000000 0.100000
vn -0.000167 0.100000 -0.000000
vn -0.000167 0.100000 -0.000000
vn -0.000167 0.100000 -0.000000
vn -0.000167 0.100000 -0.000000
vn -0.000167 0.100000 -0.000000
vn -0.000167 0.100000 -0.000000
vn -0.000167 0.100000 -0.000000
vn -0.000167 0.100000 -0.000000
vn -0.000167 0.100000 -0.000000
vn -0.000167 0.100000 -0.000000
vn -0.000167 0.100000 -0.000000
vn -0.000167 0.100000 -0.000000
vn -0.000167 0.100000 -0.000000
vn -0.000167 0.100000 -0.000000
vn -0.000167 0.100000 -0.000000
vn -0.000167 0.100000 -0.000000
vn -0.000167 0.100000 -0.000000
vn -0.000167 0.100000 -0.000000
vn -0.000167 0.100000 -0.000000
vn -0.000167 0.100000 -0.000000
vn -0.000167 0.100000 -0.000000
vn -0.000167 0.100000 -0.000000
vn -0.000167 0.100000 -0.000000
vn -0.000167 0.100000 -0.000000
vn -0.052535 -0.085088 0.000000
vn -0.052535 -0.085088 0.000000
vn -0.052535 -0.085088 0.000000
vn -0.052535 -0.085088 0.000000
vn -0.100000 -0.000167 0.000000
vn -0.100000 -0.000167 0.000000
vn -0.100000 -0.000167 0.000000
vn -0.100000 -0.000167 0.000000
vn 0.100000 0.000167 -0.000000
vn 0.100000 0.000167 -0.000000
vn 0.100000 0.000167 -0.000000
vn 0.100000 0.000167 -0.000000
vn 0.053678 0.084372 -0.000000
vn 0.053678 0.084372 -0.000000
vn 0.053678 0.084372 -0.000000
vn 0.053678 0.084372 -0.000000
vn -0.000167 0.100000 -0.000000
vn -0.000167 0.100000 -0.000000
vn -0.000167 0.100000 -0.000000
vn -0.000167 0.100000 -0.000000
vn -0.100000 -0.000167 0.000000
vn -0.100000 -0.000167 0.000000
vn -0.100000 -0.000167 0.000000
vn -0.100000 -0.000167 0.000000
vn 0.100000 0.000167 -0.000000
vn 0.100000 0.000167 -0.000000
vn 0.100000 0.000167 -0.000000
vn 0.100000 0.000167 -0.000000
vn -0.000167 0.100000 -0.000000
vn -0.000167 0.100000 -0.000000
vn -0.000167 0.100000 -0.000000
vn -0.000167 0.100000 -0.000000
vn 0.095655 -0.029156 0.000000
vn 0.095655 -0.029156 0.000000
vn 0.095655 -0.029156 0.000000
vn 0.095655 -0.029156 0.000000
vn 0.000000 0.000000 0.100000
vn 0.000000 0.000000 0.100000
vn 0.000000 0.000000 0.100000
vn 0.000000 0.000000 0.100000
vn 0.000000 0.000000 0.100000
vn 0.000000 0.000000 0.100000
vn 0.000000 0.000000 0.100000
vn 0.000000 0.000000 0.100000
vn 0.000000 0.000000 0.100000
vn 0.000000 0.000000 0.100000
vn 0.000000 0.000000 0.100000
vn 0.000000 0.000000 0.100000
vn 0.000000 0.000000 0.100000
vn 0.000000 0.000000 0.100000
vn 0.000000 0.000000 0.100000
vn 0.000000 -0.000000 -0.100000
vn 0.000000 -0.000000 -0.100000
vn 0.000000 -0.000000 -0.100000
vn 0.000000 -0.000000 -0.100000
vn 0.000000 -0.000000 -0.100000
vn 0.000000 -0.000000 -0.100000
vn 0.000000 -0.000000 -0.100000
vn 0.000000 -0.000000 -0.100000
vn 0.000000 -0.000000 -0.100000
vn 0.000000 -0.000000 -0.100000
vn 0.000000 -0.000000 -0.100000
vn 0.000000 -0.000000 -0.100000
vn 0.000000 -0.000000 -0.100000
vn 0.000000 -0.000000 -0.100000
vn 0.000000 -0.000000 -0.100000
vn 0.050000 0.086603 -0.000000
vn 0.050000 0.086603 -0.000000
vn 0.050000 0.086603 -0.000000
vn 0.050000 0.086603 -0.000000
vn 0.100000 -0.000000 0.000000
vn 0.100000 -0.000000 0.000000
vn 0.100000 -0.000000 0.000000
vn 0.100000 -0.000000 0.000000
vn 0.050000 -0.086603 0.000000
vn 0.050000 -0.086603 0.000000
vn 0.050000 -0.086603 0.000000
vn 0.050000 -0.086603 0.000000
vn 0.000000 -0.100000 0.000000
vn 0.000000 -0.100000 0.000000
vn 0.000000 -0.100000 0.000000
vn 0.000000 -0.100000 0.000000
vn 0.098275 -0.018492 0.000000
vn 0.098275 -0.018492 0.000000
vn 0.098275 -0.018492 0.000000
vn 0.098275 -0.018492 0.000000
vn 0.100000 0.000000 0.000000
vn 0.100000 0.000000 0.000000
vn 0.100000 0.000000 0.000000
vn 0.100000 0.000000 0.000000
vn 0.097780 0.020953 -0.000000
vn 0.097780 0.020953 -0.000000
vn 0.097780 0.020953 -0.000000
vn 0.097780 0.020953 -0.000000
vn 0.016499 0.098630 -0.000000
vn 0.016499 0.098630 -0.000000
vn 0.016499 0.098630 -0.000000
vn 0.016499 0.098630 -0.000000
vn 0.100000 0.000000 -0.000000
vn 0.100000 0.000000 -0.000000
vn 0.100000 0.000000 -0.000000
vn 0.100000 0.000000 -0.000000
vn -0.050000 -0.086603 0.000000
vn -0.050000 -0.086603 0.000000
vn -0.050000 -0.086603 0.000000
vn -0.050000 -0.086603 0.000000
vn -0.100000 -0.000000 0.000000
vn -0.100000 -0.000000 0.000000
vn -0.100000 -0.000000 0.000000
vn -0.100000 -0.000000 0.000000
vn -0.050000 0.086603 -0.000000
vn -0.050000 0.086603 -0.000000
vn -0.050000 0.086603 -0.000000
vn -0.050000 0.086603 -0.000000
vn 0.050000 0.086603 -0.000000
vn 0.050000 0.086603 -0.000000
vn 0.050000 0.086603 -0.000000
vn 0.050000 0.086603 -0.000000
vn -0.050000 0.086603 -0.000000
vn -0.050000 0.086603 -0.000000
vn -0.050000 0.086603 -0.000000
vn -0.050000 0.086603 -0.000000
vn -0.100000 0.000000 -0.000000
vn -0.100000 0.000000 -0.000000
vn -0.100000 0.000000 -0.000000
vn -0.100000 0.000000 -0.000000
vn -0.050000 -0.086603 0.000000
vn -0.050000 -0.086603 0.000000
vn -0.050000 -0.086603 0.000000
vn -0.050000 -0.086603 0.000000
vn 0.050000 -0.086603 0.000000
vn 0.050000 -0.086603 0.000000
vn 0.050000 -0.086603 0.000000
vn 0.050000 -0.086603 0.000000
vn -0.100000 0.000000 -0.000000
vn -0.100000 0.000000 -0.000000
vn -0.100000 0.000000 -0.000000
vn -0.100000 0.000000 -0.000000
vn 0.100000 0.000167 -0.000000
vn 0.100000 0.000167 -0.000000
vn 0.100000 0.000167 -0.000000
vn 0.100000 0.000167 -0.000000
vn 0.000167 -0.100000 0.000000
vn 0.000167 -0.100000 0.000000
vn 0.000167 -0.100000 0.000000
vn 0.000167 -0.100000 0.000000
vn -0.100000 -0.000167 0.000000
vn -0.100000 -0.000167 0.000000
vn -0.100000 -0.000167 0.000000
vn -0.100000 -0.000167 0.000000
vn -0.100000 -0.000167 0.000000
vn -0.100000 -0.000167 0.000000
vn -0.100000 -0.000167 0.000000
vn -0.100000 -0.000167 0.000000
vn 0.000000 -0.000000 -0.100000
vn 0.000000 -0.000000 -0.100000
vn 0.000000 -0.000000 -0.100000
vn 0.000000 -0.000000 -0.100000
vn 0.000000 -0.000000 -0.100000
vn 0.000000 -0.000000 -0.100000
vn 0.000000 -0.000000 -0.100000
vn 0.000000 -0.000000 -0.100000
vn 0.000000 -0.000000 -0.100000
vn 0.000000 -0.000000 -0.100000
vn 0.000000 -0.000000 -0.100000
vn 0.000000 -0.000000 -0.100000
vn 0.000000 -0.000000 -0.100000
vn 0.000000 -0.000000 -0.100000
vn 0.000000 -0.000000 -0.100000
vn 0.000000 -0.000000 -0.100000
vn 0.000000 -0.000000 -0.100000
vn 0.000000 -0.000000 -0.100000
vn 0.000000 -0.000000 -0.100000
vn 0.000000 -0.000000 -0.100000
vn 0.000000 -0.000000 -0.100000
vn 0.000000 -0.000000 -0.100000
vn 0.000000 -0.000000 -0.100000
vn 0.000000 -0.000000 -0.100000
vn 0.000000 -0.000000 -0.100000
vn 0.000000 -0.000000 -0.100000
vn 0.000000 -0.000000 -0.100000
vn 0.000000 -0.000000 -0.100000
vn 0.000000 -0.000000 -0.100000
vn 0.000000 -0.000000 -0.100000
vn 0.000000 -0.000000 -0.100000
vn 0.000000 -0.000000 -0.100000
vn 0.000000 0.000000 0.100000
vn 0.000000 0.000000 0.100000
vn 0.000000 0.000000 0.100000
vn 0.000000 0.000000 0.100000
vn 0.000000 0.000000 0.100000
vn 0.000000 0.000000 0.100000
vn 0.000000 0.000000 0.100000
vn 0.000000 0.000000 0.100000
vn 0.000000 0.000000 0.100000
vn 0.000000 0.000000 0.100000
vn 0.000000 -0.000000 -0.100000
vn 0.000000 -0.000000 -0.100000
vn 0.000000 -0.000000 -0.100000
vn 0.000000 -0.000000 -0.100000
vn 0.000000 -0.000000 -0.100000
vn 0.000000 -0.000000 -0.100000
vn 0.000000 -0.000000 -0.100000
vn 0.000000 -0.000000 -0.100000
vn 0.000000 -0.000000 -0.100000
vn 0.000000 -0.000000 -0.100000
vn 0.000000 0.000000 0.100000
vn 0.000000 0.000000 0.100000
vn 0.000000 0.000000 0.100000
vn 0.000000 0.000000 0.100000
vn 0.000000 0.000000 0.100000
vn 0.000000 0.000000 0.100000
vn 0.000000 0.000000 0.100000
vn 0.000000 0.000000 0.100000
vn 0.000000 0.000000 0.100000
vn 0.000000 0.000000 0.100000
vn 0.000000 0.000000 0.100000
vn 0.000000 0.000000 0.100000
vn 0.000000 0.000000 0.100000
vn 0.000000 0.000000 0.100000
vn 0.000000 0.000000 0.100000
vn 0.000000 0.000000 0.100000
vn 0.000000 0.000000 0.100000
vn 0.000000 0.000000 0.100000
vn 0.000000 0.000000 0.100000
vn 0.000000 0.000000 0.100000
vn 0.000000 0.000000 0.100000
vn 0.000000 0.000000 0.100000
vn 0.000000 0.000000 0.100000
vn 0.000000 0.000000 0.100000
vn 0.000000 0.000000 0.100000
vn 0.000000 0.000000 0.100000
vn 0.000000 0.000000 0.100000
vn 0.000000 0.000000 0.100000
vn 0.000000 0.000000 0.100000
vn 0.000000 0.000000 0.100000
vn 0.000000 0.000000 0.100000
vn 0.000000 0.000000 0.100000
vn -0.000000 -0.000000 -0.100000
vn -0.000000 -0.000000 -0.100000
vn -0.000000 -0.000000 -0.100000
vn -0.000000 -0.000000 -0.100000
vn -0.000167 0.100000 -0.000000
vn -0.000167 0.100000 -0.000000
vn -0.000167 0.100000 -0.000000
vn -0.000167 0.100000 -0.000000
vn 0.000000 0.000000 0.100000
vn 0.000000 0.000000 0.100000
vn 0.000000 0.000000 0.100000
vn 0.000000 0.000000 0.100000
vn 0.000167 -0.100000 0.000000
vn 0.000167 -0.100000 0.000000
vn 0.000167 -0.100000 0.000000
vn 0.000167 -0.100000 0.000000
vn 0.000167 -0.100000 0.000000
vn -0.100000 -0.000167 0.000000
vn -0.100000 -0.000167 0.000000
vn -0.100000 -0.000167 0.000000
vn -0.100000 -0.000167 0.000000
vn -0.100000 -0.000167 0.000000
vn -0.100000 -0.000167 0.000000
vn -0.100000 -0.000167 0.000000
vn -0.100000 -0.000167 0.000000
vn -0.100000 -0.000167 0.000000
vn -0.100000 -0.000167 0.000000
vn -0.000000 -0.000000 -0.100000
vn -0.000000 -0.000000 -0.100000
vn -0.000167 0.100000 -0.000000
vn -0.000167 0.100000 -0.000000
vn -0.000167 0.100000 -0.000000
vn -0.000167 0.100000 -0.000000
vn 0.000000 0.000000 0.100000
vn 0.000000 0.000000 0.100000
vn 0.000000 0.000000 0.100000
vn 0.000000 0.000000 0.100000
vn 0.000167 -0.100000 0.000000
vn 0.000167 -0.100000 0.000000
vn 0.000167 -0.100000 0.000000
vn 0.000167 -0.100000 0.000000
vn 0.000167 -0.100000 0.000000
vn 0.000000 0.000000 0.100000
vn 0.000000 0.000000 0.100000
vn 0.000000 0.000000 0.100000
vn 0.000000 0.000000 0.100000
vn -0.000167 0.100000 -0.000000
vn -0.000167 0.100000 -0.000000
vn -0.000167 0.100000 -0.000000
vn -0.000167 0.100000 -0.000000
vn -0.000167 0.100000 -0.000000
vn -0.000167 0.100000 -0.000000
vn -0.000167 0.100000 -0.000000
vn -0.000167 0.100000 -0.000000
vn 0.000000 -0.000000 -0.100000
vn 0.000000 -0.000000 -0.100000
vn 0.000000 -0.000000 -0.100000
vn 0.000000 -0.000000 -0.100000
vn 0.000167 -0.100000 0.000000
vn 0.000167 -0.100000 0.000000
vn 0.000167 -0.100000 0.000000
vn 0.000167 -0.100000 0.000000
vn -0.100000 -0.000167 0.000000
vn -0.100000 -0.000167 0.000000
vn -0.100000 -0.000167 0.000000
vn -0.100000 -0.000167 0.000000
vn -0.100000 -0.000167 0.000000
vn -0.100000 -0.000167 0.000000
vn -0.100000 -0.000167 0.000000
vn -0.100000 -0.000167 0.000000
vn -0.100000 -0.000167 0.000000
vn -0.100000 -0.000167 0.000000
vn -0.100000 -0.000167 0.000000
vn -0.100000 -0.000167 0.000000
vn 0.100000 0.000167 -0.000000
vn 0.100000 0.000167 -0.000000
vn 0.100000 0.000167 -0.000000
vn 0.100000 0.000167 -0.000000
vn 0.100000 0.000167 -0.000000
vn 0.100000 0.000167 -0.000000
vn 0.100000 0.000167 -0.000000
vn 0.100000 0.000167 -0.000000
vn 0.100000 0.000167 -0.000000
vn 0.100000 0.000167 -0.000000
vn 0.100000 0.000167 -0.000000
vn 0.100000 0.000167 -0.000000
vn 0.100000 0.000167 -0.000000
vn 0.100000 0.000167 -0.000000
vn 0.100000 0.000167 -0.000000
vn 0.100000 0.000167 -0.000000
vn 0.100000 0.000167 -0.000000
vn 0.100000 0.000167 -0.000000
vn 0.100000 0.000167 -0.000000
vn 0.100000 0.000167 -0.000000
usemtl Steel_-_Satin
f 1/1/1 2/2/2 6/3/3
f 6/3/3 2/2/2 3/4/4
f 6/3/3 3/4/4 5/5/5
f 5/5/5 3/4/4 4/6/6
f 2/7/7 7/8/8 3/9/9
f 3/9/9 7/8/8 8/10/10
f 9/11/11 10/12/12 7/13/13
f 7/13/13 10/12/12 8/14/14
f 8/14/14 10/12/12 11/15/15
f 8/14/14 11/15/15 12/16/16
f 10/17/17 6/18/18 11/19/19
f 11/19/19 6/18/18 5/20/20
f 10/21/21 9/22/22 14/23/23
f 14/23/23 9/22/22 13/24/24
f 1/25/25 6/26/26 16/27/27
f 16/27/27 6/26/26 15/28/28
f 12/29/29 11/30/30 18/31/31
f 18/31/31 11/30/30 17/32/32
f 5/33/33 4/34/34 20/35/35
f 20/35/35 4/34/34 19/36/36
f 16/37/37 21/38/38 15/39/39
f 15/39/39 21/38/38 22/40/40
f 15/39/39 22/40/40 20/41/41
f 20/41/41 22/40/40 19/42/42
f 21/43/43 23/44/44 22/45/45
f 22/45/45 23/44/44 24/46/46
f 23/47/47 25/48/48 24/49/49
f 24/49/49 25/48/48 26/50/50
f 16/51/51 15/52/52 25/53/53
f 25/53/53 15/52/52 26/54/54
f 26/54/54 15/52/52 20/55/55
f 26/54/54 20/55/55 19/56/56
f 22/57/57 24/58/58 19/59/59
f 19/59/59 24/58/58 26/60/60
f 25/61/61 23/62/62 16/63/63
f 16/63/63 23/62/62 21/64/64
f 27/65/65 28/66/66 30/67/67
f 30/67/67 28/66/66 29/68/68
f 31/69/69 32/70/70 28/71/71
f 28/71/71 32/70/70 29/72/72
f 29/72/72 32/70/70 33/73/73
f 29/72/72 33/73/73 34/74/74
f 31/75/75 35/76/76 32/77/77
f 32/77/77 35/76/76 36/78/78
f 32/77/77 36/78/78 33/79/79
f 33/79/79 36/78/78 34/80/80
f 35/81/81 27/82/82 36/83/83
f 36/83/83 27/82/82 30/84/84
f 34/85/85 36/86/86 29/87/87
f 29/87/87 36/86/86 30/88/88
f 31/89/89 28/90/90 35/91/91
f 35/91/91 28/90/90 27/92/92
f 31/93/93 32/94/94 38/95/95
f 38/95/95 32/94/94 37/96/96
f 33/97/97 34/98/98 40/99/99
f 40/99/99 34/98/98 39/100/100
f 37/101/101 14/102/102 40/103/103
f 40/103/103 14/102/102 17/104/104
f 13/105/105 41/106/106 14/107/107
f 14/107/107 41/106/106 42/108/108
f 14/107/107 42/108/108 17/109/109
f 17/109/109 42/108/108 18/110/110
f 41/111/111 43/112/112 42/113/113
f 42/113/113 43/112/112 44/114/114
f 38/115/115 37/116/116 43/117/117
f 43/117/117 37/116/116 44/118/118
f 44/118/118 37/116/116 40/119/119
f 44/118/118 40/119/119 39/120/120
f 32/121/94 31/122/93 46/123/121
f 46/123/121 31/122/93 45/124/122
f 16/125/27 15/126/28 48/127/123
f 48/127/123 15/126/28 47/128/124
f 34/129/98 33/130/97 50/131/125
f 50/131/125 33/130/97 49/132/126
f 20/133/35 19/134/36 52/135/127
f 52/135/127 19/134/36 51/136/128
f 53/137/129 54/138/130 56/139/131
f 56/139/131 54/138/130 55/140/132
f 57/141/133 53/142/134 58/143/135
f 58/143/135 53/142/134 56/144/136
f 59/145/137 57/146/138 60/147/139
f 60/147/139 57/146/138 58/148/140
f 54/149/141 59/150/142 55/151/143
f 55/151/143 59/150/142 60/152/144
f 55/153/145 60/154/146 56/155/147
f 56/155/147 60/154/146 58/156/148
f 61/157/149 62/158/150 64/159/151
f 64/159/151 62/158/150 63/160/152
f 65/161/153 61/162/154 66/163/155
f 66/163/155 61/162/154 64/164/156
f 67/165/157 65/166/158 68/167/159
f 68/167/159 65/166/158 66/168/160
f 62/169/161 67/170/162 63/171/163
f 63/171/163 67/170/162 68/172/164
f 68/173/165 66/174/166 63/175/167
f 63/175/167 66/174/166 64/176/168
f 69/177/169 70/178/170 72/179/171
f 72/179/171 70/178/170 71/180/172
f 70/181/173 73/182/174 71/183/175
f 71/183/175 73/182/174 74/184/176
f 61/185/177 76/186/178 62/187/179
f 62/187/179 76/186/178 74/188/180
f 62/187/179 74/188/180 67/189/181
f 67/189/181 74/188/180 73/190/182
f 67/189/181 73/190/182 75/191/183
f 61/185/177 65/192/184 76/186/178
f 76/186/178 65/192/184 75/191/183
f 75/191/183 65/192/184 67/189/181
f 74/193/185 76/194/186 77/195/187
f 73/196/188 70/197/189 79/198/190
f 79/198/190 70/197/189 78/199/191
f 78/199/191 70/197/189 69/200/192
f 80/201/193 81/202/194 83/203/195
f 83/203/195 81/202/194 82/204/196
f 84/205/197 85/206/198 87/207/199
f 87/207/199 85/206/198 86/208/200
f 88/209/201 84/210/202 89/211/203
f 89/211/203 84/210/202 87/212/204
f 90/213/205 91/214/206 93/215/207
f 93/215/207 91/214/206 92/216/208
f 94/217/209 90/218/210 95/219/211
f 95/219/211 90/218/210 93/220/212
f 94/221/213 95/222/214 81/223/215
f 81/223/215 95/222/214 96/224/216
f 81/223/215 96/224/216 82/225/217
f 82/225/217 96/224/216 97/226/218
f 82/225/217 97/226/218 98/227/219
f 98/227/219 99/228/220 82/225/217
f 53/229/221 100/230/222 54/231/223
f 54/231/223 100/230/222 101/232/224
f 54/231/223 101/232/224 59/233/225
f 59/233/225 101/232/224 97/234/226
f 59/233/225 97/234/226 96/235/227
f 53/229/221 57/236/228 100/230/222
f 100/230/222 57/236/228 96/235/227
f 96/235/227 57/236/228 59/233/225
f 102/237/229 80/238/230 105/239/231
f 105/239/231 80/238/230 100/240/232
f 100/240/232 80/238/230 83/241/233
f 100/240/232 83/241/233 101/242/234
f 101/242/234 83/241/233 104/243/235
f 104/243/235 83/241/233 103/244/236
f 106/245/237 102/246/238 107/247/239
f 107/247/239 102/246/238 105/248/240
f 109/249/241 106/250/242 108/251/243
f 108/251/243 106/250/242 107/252/244
f 110/253/245 111/254/246 113/255/247
f 113/255/247 111/254/246 112/256/248
f 114/257/249 110/258/250 115/259/251
f 115/259/251 110/258/250 113/260/252
f 85/261/253 114/262/254 86/263/255
f 86/263/255 114/262/254 115/264/256
f 96/265/257 95/266/258 100/267/259
f 100/267/259 95/266/258 86/268/260
f 100/267/259 86/268/260 105/269/261
f 105/269/261 86/268/260 115/270/262
f 105/269/261 115/270/262 108/271/263
f 108/271/263 115/270/262 112/272/264
f 108/271/263 112/272/264 116/273/265
f 86/268/260 95/266/258 87/274/266
f 87/274/266 95/266/258 93/275/267
f 87/274/266 93/275/267 92/276/268
f 92/276/268 89/277/269 87/274/266
f 115/270/262 113/278/270 112/272/264
f 108/271/263 107/279/271 105/269/261
f 81/280/272 80/281/273 94/282/274
f 94/282/274 80/281/273 85/283/275
f 94/282/274 85/283/275 84/284/276
f 80/281/273 102/285/277 85/283/275
f 85/283/275 102/285/277 114/286/278
f 114/286/278 102/285/277 109/287/279
f 114/286/278 109/287/279 111/288/280
f 111/288/280 109/287/279 117/289/281
f 102/285/277 106/290/282 109/287/279
f 111/288/280 110/291/283 114/286/278
f 88/292/284 91/293/285 84/284/276
f 84/284/276 91/293/285 90/294/286
f 84/284/276 90/294/286 94/282/274
f 116/295/287 112/296/288 129/297/289
f 129/297/289 112/296/288 89/298/290
f 129/297/289 89/298/290 128/299/291
f 128/299/291 89/298/290 92/300/292
f 128/299/291 92/300/292 119/301/293
f 119/301/293 92/300/292 91/302/294
f 119/301/293 91/302/294 88/303/295
f 112/296/288 111/304/296 89/298/290
f 89/298/290 111/304/296 88/303/295
f 88/303/295 111/304/296 118/305/297
f 88/303/295 118/305/297 119/301/293
f 111/304/296 117/306/298 118/305/297
f 119/301/293 120/307/299 128/299/291
f 128/299/291 120/307/299 127/308/300
f 127/308/300 120/307/299 131/309/301
f 127/308/300 131/309/301 132/310/302
f 121/311/303 133/312/304 120/307/299
f 120/307/299 133/312/304 130/313/305
f 120/307/299 130/313/305 131/309/301
f 122/314/306 123/315/307 121/311/303
f 121/311/303 123/315/307 133/312/304
f 123/315/307 124/316/308 133/312/304
f 133/312/304 124/316/308 132/310/302
f 132/310/302 124/316/308 126/317/309
f 132/310/302 126/317/309 127/308/300
f 124/316/308 125/318/310 126/317/309
f 134/319/311 135/320/312 137/321/313
f 137/321/313 135/320/312 136/322/314
f 135/323/315 133/324/316 136/325/317
f 136/325/317 133/324/316 132/326/318
f 130/327/319 138/328/320 131/329/321
f 131/329/321 138/328/320 139/330/322
f 138/331/323 99/332/324 139/333/325
f 139/333/325 99/332/324 98/334/326
f 103/335/327 140/336/328 104/337/329
f 104/337/329 140/336/328 141/338/330
f 143/339/331 141/340/332 142/341/333
f 142/341/333 141/340/332 140/342/334
f 123/343/335 144/344/336 124/345/337
f 124/345/337 144/344/336 145/346/338
f 144/347/339 146/348/340 145/349/341
f 145/349/341 146/348/340 147/350/342
f 146/351/343 134/352/344 147/353/345
f 147/353/345 134/352/344 137/354/346
f 97/355/347 101/356/348 98/357/349
f 98/357/349 101/356/348 137/358/350
f 98/357/349 137/358/350 136/359/351
f 101/356/348 104/360/352 137/358/350
f 137/358/350 104/360/352 147/361/353
f 147/361/353 104/360/352 143/362/354
f 147/361/353 143/362/354 124/363/355
f 124/363/355 143/362/354 125/364/356
f 104/360/352 141/365/357 143/362/354
f 124/363/355 145/366/358 147/361/353
f 132/367/359 131/368/360 136/359/351
f 136/359/351 131/368/360 139/369/361
f 136/359/351 139/369/361 98/357/349
f 82/370/362 99/371/363 83/372/364
f 83/372/364 99/371/363 134/373/365
f 83/372/364 134/373/365 103/374/366
f 103/374/366 134/373/365 146/375/367
f 103/374/366 146/375/367 142/376/368
f 142/376/368 146/375/367 123/377/369
f 142/376/368 123/377/369 122/378/370
f 134/373/365 99/371/363 135/379/371
f 135/379/371 99/371/363 138/380/372
f 135/379/371 138/380/372 130/381/373
f 130/381/373 133/382/374 135/379/371
f 146/375/367 144/383/375 123/377/369
f 142/376/368 140/384/376 103/374/366
f 148/385/377 149/386/378 151/387/379
f 151/387/379 149/386/378 150/388/380
f 149/389/381 152/390/382 150/391/383
f 150/391/383 152/390/382 153/392/384
f 152/393/385 154/394/386 153/395/387
f 153/395/387 154/394/386 155/396/388
f 156/397/389 157/398/390 159/399/391
f 159/399/391 157/398/390 158/400/392
usemtl Base_Material_-_Layered
f 157/401/393 160/402/394 158/403/395
f 158/403/395 160/402/394 161/404/396
f 160/405/397 162/406/398 161/407/399
f 161/407/399 162/406/398 163/408/400
f 162/409/401 164/410/402 163/411/403
f 163/411/403 164/410/402 165/412/404
f 164/413/405 166/414/406 165/415/407
f 165/415/407 166/414/406 167/416/408
usemtl Steel_-_Satin
f 166/417/409 168/418/410 167/419/411
f 167/419/411 168/418/410 169/420/412
f 154/421/413 170/422/414 155/423/415
f 155/423/415 170/422/414 171/424/416
f 170/425/417 172/426/418 171/427/419
f 171/427/419 172/426/418 173/428/420
f 172/429/421 148/430/422 173/431/423
f 173/431/423 148/430/422 151/432/424
usemtl Base_Material_-_Layered
f 168/433/425 174/434/426 169/435/427
f 169/435/427 174/434/426 175/436/428
f 174/437/429 176/438/430 175/439/431
f 175/439/431 176/438/430 177/440/432
f 176/441/433 178/442/434 177/443/435
f 177/443/435 178/442/434 179/444/436
f 178/445/437 180/446/438 179/447/439
f 179/447/439 180/446/438 181/448/440
f 180/449/441 182/450/442 181/451/443
f 181/451/443 182/450/442 183/452/444
f 182/453/445 128/454/446 183/455/447
f 183/455/447 128/454/446 127/456/448
f 159/457/449 184/458/450 156/459/451
f 156/459/451 184/458/450 185/460/452
usemtl Steel_-_Satin
f 187/461/453 185/462/454 186/463/455
f 186/463/455 185/462/454 184/464/456
f 120/465/457 119/466/458 49/467/459
f 49/467/459 119/466/458 46/468/460
f 49/467/459 46/468/460 186/469/461
f 186/469/461 46/468/460 187/470/462
f 187/470/462 46/468/460 45/471/463
f 186/469/461 50/472/464 49/467/459
f 154/473/465 168/474/466 170/475/467
f 170/475/467 168/474/466 166/476/468
f 170/475/467 166/476/468 164/477/469
f 152/478/470 176/479/471 154/473/465
f 154/473/465 176/479/471 174/480/472
f 154/473/465 174/480/472 168/474/466
f 176/479/471 152/478/470 178/481/473
f 178/481/473 152/478/470 149/482/474
f 178/481/473 149/482/474 148/483/475
f 172/484/476 182/485/477 148/483/475
f 148/483/475 182/485/477 180/486/478
f 148/483/475 180/486/478 178/481/473
f 182/485/477 172/484/476 162/487/479
f 162/487/479 172/484/476 170/475/467
f 162/487/479 170/475/467 164/477/469
f 48/488/480 129/489/481 16/490/63
f 16/490/63 129/489/481 1/491/482
f 1/491/482 129/489/481 9/492/483
f 1/491/482 9/492/483 2/493/484
f 2/493/484 9/492/483 7/494/485
f 9/492/483 129/489/481 13/495/486
f 13/495/486 129/489/481 128/496/487
f 13/495/486 128/496/487 38/497/488
f 38/497/488 128/496/487 31/498/89
f 31/498/89 128/496/487 45/499/489
f 45/499/489 128/496/487 156/500/490
f 45/499/489 156/500/490 185/501/491
f 156/500/490 128/496/487 160/502/492
f 160/502/492 128/496/487 182/485/477
f 160/502/492 182/485/477 162/487/479
f 160/502/492 157/503/493 156/500/490
f 185/501/491 187/504/494 45/499/489
f 38/497/488 43/505/495 13/495/486
f 13/495/486 43/505/495 41/506/496
f 46/507/497 119/508/498 32/509/499
f 32/509/499 119/508/498 37/510/500
f 37/510/500 119/508/498 14/511/501
f 14/511/501 119/508/498 118/512/502
f 14/511/501 118/512/502 10/513/503
f 10/513/503 118/512/502 6/514/504
f 6/514/504 118/512/502 15/515/505
f 15/515/505 118/512/502 47/516/506
f 49/517/507 33/518/508 120/519/509
f 120/519/509 33/518/508 40/520/510
f 120/519/509 40/520/510 17/521/511
f 120/519/509 17/521/511 121/522/512
f 121/522/512 17/521/511 11/523/513
f 121/522/512 11/523/513 5/524/514
f 5/524/514 20/525/515 121/522/512
f 121/522/512 20/525/515 52/526/516
f 155/527/517 177/528/518 153/529/519
f 153/529/519 177/528/518 179/530/520
f 153/529/519 179/530/520 150/531/521
f 150/531/521 179/530/520 151/532/522
f 151/532/522 179/530/520 181/533/523
f 151/532/522 181/533/523 183/534/524
f 171/535/525 169/536/526 155/527/517
f 155/527/517 169/536/526 175/537/527
f 155/527/517 175/537/527 177/528/518
f 173/538/528 163/539/529 171/535/525
f 171/535/525 163/539/529 165/540/530
f 171/535/525 165/540/530 167/541/531
f 163/539/529 173/538/528 183/534/524
f 183/534/524 173/538/528 151/532/522
f 126/542/532 18/543/533 127/544/534
f 127/544/534 18/543/533 39/545/535
f 127/544/534 39/545/535 34/546/85
f 51/547/536 19/548/59 126/542/532
f 126/542/532 19/548/59 4/549/537
f 126/542/532 4/549/537 12/550/538
f 12/550/538 4/549/537 3/551/539
f 12/550/538 3/551/539 8/552/540
f 12/550/538 18/543/533 126/542/532
f 42/553/541 44/554/542 18/543/533
f 18/543/533 44/554/542 39/545/535
f 34/546/85 50/555/543 127/544/534
f 127/544/534 50/555/543 159/556/544
f 127/544/534 159/556/544 161/557/545
f 161/557/545 159/556/544 158/558/546
f 186/559/547 184/560/548 50/555/543
f 50/555/543 184/560/548 159/556/544
f 127/544/534 161/557/545 183/534/524
f 183/534/524 161/557/545 163/539/529
f 167/541/531 169/536/526 171/535/525
f 188/561/549 189/562/550 191/563/551
f 191/563/551 189/562/550 190/564/552
f 192/565/553 188/566/554 72/567/555
f 72/567/555 188/566/554 191/568/556
f 74/569/185 193/570/557 71/571/558
f 71/571/558 193/570/557 192/572/559
f 71/571/558 192/572/559 72/573/560
f 193/574/561 74/575/562 189/576/563
f 189/576/563 74/575/562 190/577/564
f 190/577/564 74/575/562 77/578/565
f 77/579/566 76/580/567 190/581/568
f 190/581/568 76/580/567 191/582/569
f 191/582/569 76/580/567 72/583/570
f 72/583/570 76/580/567 69/584/571
f 69/584/571 76/580/567 75/585/572
f 69/584/571 75/585/572 196/586/573
f 196/586/573 75/585/572 195/587/574
f 195/587/574 75/585/572 194/588/575
f 75/589/576 73/590/188 194/591/577
f 197/592/578 78/593/579 196/594/580
f 196/594/580 78/593/579 69/595/581
f 198/596/582 197/597/583 195/598/584
f 195/598/584 197/597/583 196/599/585
f 79/600/586 198/601/587 73/602/588
f 73/602/588 198/601/587 195/603/589
f 73/602/588 195/603/589 194/604/590
f 199/605/591 200/606/592 202/607/593
f 202/607/593 200/606/592 201/608/594
f 199/609/595 109/610/596 203/611/597
f 203/611/597 109/610/596 108/612/598
f 203/611/597 108/612/598 204/613/599
f 202/614/600 143/615/601 199/609/595
f 199/609/595 143/615/601 142/616/602
f 199/609/595 142/616/602 109/610/596
f 205/617/603 203/618/604 206/619/605
f 206/619/605 203/618/604 204/620/606
f 200/621/607 205/622/608 201/623/609
f 201/623/609 205/622/608 206/624/610
f 188/625/611 203/626/612 189/627/613
f 189/627/613 203/626/612 205/628/614
f 189/627/613 205/628/614 193/629/615
f 193/629/615 205/628/614 200/630/616
f 193/629/615 200/630/616 79/631/617
f 79/631/617 200/630/616 198/632/618
f 198/632/618 200/630/616 199/633/619
f 198/632/618 199/633/619 197/634/620
f 197/634/620 199/633/619 78/635/621
f 78/635/621 199/633/619 203/626/612
f 78/635/621 203/626/612 192/636/622
f 192/636/622 203/626/612 188/625/611
f 78/635/621 192/636/622 79/631/617
f 79/631/617 192/636/622 193/629/615
f 206/637/623 47/638/624 201/639/625
f 201/639/625 47/638/624 52/640/626
f 201/639/625 52/640/626 51/641/627
f 47/638/624 206/637/623 48/642/628
f 48/642/628 206/637/623 204/643/629
f 48/642/628 204/643/629 129/644/630
f 129/644/630 204/643/629 108/645/631
f 129/644/630 108/645/631 116/646/632
f 47/638/624 118/647/633 52/640/626
f 52/640/626 118/647/633 121/648/634
f 121/648/634 118/647/633 142/649/635
f 121/648/634 142/649/635 122/650/636
f 117/651/637 109/652/638 118/647/633
f 118/647/633 109/652/638 142/649/635
f 51/641/627 126/653/639 201/639/625
f 201/639/625 126/653/639 202/654/640
f 202/654/640 126/653/639 143/655/641
f 143/655/641 126/653/639 125/656/642
# 206 vertices
# 656 texture params
# 642 normals
# 448 facets

# 1 groups
