# WaveFront *.obj file (generated by Autodesk ATF)

mtllib spreader.mtl

g Body1

v 76.200000 2184.399966 101.600000
v 76.200000 2285.999966 101.600000
v 609.600000 2285.999966 101.600000
v 609.600000 2184.399966 101.600000
v -76.200000 2285.999966 101.600000
v -76.200000 2184.399966 101.600000
v -609.600000 2184.399966 101.600000
v -609.600000 2285.999966 101.600000
v 609.600000 2184.399966 203.200000
v -609.600000 2184.399966 203.200000
v 609.600000 2285.999966 203.200000
v -609.600000 2285.999966 203.200000
v 76.200000 3202.239443 101.600000
v -76.200000 3202.239443 101.600000
v -76.200000 -2184.399966 101.600000
v 76.200000 -2184.399966 101.600000
v 76.200000 -2285.999966 101.600000
v 609.600000 -2184.399966 101.600000
v 609.600000 -2285.999966 101.600000
v -76.200000 -2285.999966 101.600000
v -609.600000 -2285.999966 101.600000
v -609.600000 -2184.399966 101.600000
v -609.600000 -2184.399966 203.200000
v 609.600000 -2184.399966 203.200000
v 609.600000 -2285.999966 203.200000
v -609.600000 -2285.999966 203.200000
v -76.200000 -3202.239443 101.600000
v 76.200000 -3202.239443 101.600000
v -76.200000 -3202.239443 -101.600000
v 76.200000 -3202.239443 -101.600000
v -76.200000 3202.239443 -101.600000
v 76.200000 3202.239443 -101.600000
vt -7.620000 5.080000 0.000000
vt -60.960000 5.080000 0.000000
vt -7.620000 -5.080000 0.000000
vt -60.960000 -5.080000 0.000000
vt 7.620000 -5.080000 0.000000
vt 60.960000 -5.080000 0.000000
vt 7.620000 5.080000 0.000000
vt 60.960000 5.080000 0.000000
vt -0.000000 0.000000 0.000000
vt -0.000000 10.160000 0.000000
vt -53.340000 0.000000 0.000000
vt -121.920000 10.160000 0.000000
vt -68.580000 0.000000 0.000000
vt -121.920000 0.000000 0.000000
vt -10.160000 0.000000 0.000000
vt -0.000000 0.000000 0.000000
vt -10.160000 10.160000 0.000000
vt -0.000000 10.160000 0.000000
vt -0.000000 0.000000 0.000000
vt -0.000000 10.160000 0.000000
vt -53.340000 0.000000 0.000000
vt -121.920000 10.160000 0.000000
vt -68.580000 0.000000 0.000000
vt -121.920000 0.000000 0.000000
vt -10.160000 0.000000 0.000000
vt -0.000000 0.000000 0.000000
vt -10.160000 10.160000 0.000000
vt -0.000000 10.160000 0.000000
vt 60.960000 5.080000 0.000000
vt -60.960000 5.080000 0.000000
vt 60.960000 -5.080000 0.000000
vt -60.960000 -5.080000 0.000000
vt 0.000000 228.599997 0.000000
vt 15.240000 228.599997 0.000000
vt 0.000000 320.223944 0.000000
vt 15.240000 320.223944 0.000000
vt 15.240000 218.439997 0.000000
vt 0.000000 218.439997 0.000000
vt 15.240000 -218.439997 0.000000
vt 0.000000 -218.439997 0.000000
vt 7.620000 -5.080000 0.000000
vt 60.960000 -5.080000 0.000000
vt 7.620000 5.080000 0.000000
vt 60.960000 5.080000 0.000000
vt -7.620000 5.080000 0.000000
vt -60.960000 5.080000 0.000000
vt -7.620000 -5.080000 0.000000
vt -60.960000 -5.080000 0.000000
vt 0.000000 0.000000 0.000000
vt 53.340000 0.000000 0.000000
vt 0.000000 10.160000 0.000000
vt 68.580000 0.000000 0.000000
vt 121.920000 10.160000 0.000000
vt 121.920000 0.000000 0.000000
vt 0.000000 0.000000 0.000000
vt 10.160000 0.000000 0.000000
vt 0.000000 10.160000 0.000000
vt 10.160000 10.160000 0.000000
vt 0.000000 0.000000 0.000000
vt 53.340000 0.000000 0.000000
vt 0.000000 10.160000 0.000000
vt 68.580000 0.000000 0.000000
vt 121.920000 10.160000 0.000000
vt 121.920000 0.000000 0.000000
vt 0.000000 0.000000 0.000000
vt 10.160000 0.000000 0.000000
vt 0.000000 10.160000 0.000000
vt 10.160000 10.160000 0.000000
vt -60.960000 -5.080000 0.000000
vt 60.960000 -5.080000 0.000000
vt -60.960000 5.080000 0.000000
vt 60.960000 5.080000 0.000000
vt 15.240000 -228.599997 0.000000
vt 0.000000 -228.599997 0.000000
vt 15.240000 -320.223944 0.000000
vt 0.000000 -320.223944 0.000000
vt -10.160000 -7.620000 0.000000
vt 10.160000 -7.620000 0.000000
vt -10.160000 7.620000 0.000000
vt 10.160000 7.620000 0.000000
vt 15.240000 320.223944 0.000000
vt 0.000000 320.223944 0.000000
vt 15.240000 -320.223944 0.000000
vt 0.000000 -320.223944 0.000000
vt 20.320000 320.223944 0.000000
vt 0.000000 218.439997 0.000000
vt 20.320000 -320.223944 0.000000
vt -0.000000 -218.439997 0.000000
vt -0.000000 -228.599997 0.000000
vt 0.000000 320.223944 0.000000
vt 0.000000 228.599997 0.000000
vt 0.000000 -320.223944 0.000000
vt 20.320000 -320.223944 0.000000
vt 20.320000 -228.599997 0.000000
vt 0.000000 -320.223944 0.000000
vt 20.320000 -218.439997 0.000000
vt 20.320000 218.439997 0.000000
vt 0.000000 320.223944 0.000000
vt 20.320000 228.599997 0.000000
vt 20.320000 320.223944 0.000000
vt -10.160000 -7.620000 0.000000
vt 10.160000 -7.620000 0.000000
vt -10.160000 7.620000 0.000000
vt 10.160000 7.620000 0.000000
vn -0.000000 0.000000 -0.100000
vn -0.000000 0.000000 -0.100000
vn -0.000000 0.000000 -0.100000
vn -0.000000 0.000000 -0.100000
vn -0.000000 0.000000 -0.100000
vn -0.000000 0.000000 -0.100000
vn -0.000000 0.000000 -0.100000
vn -0.000000 0.000000 -0.100000
vn 0.000000 -0.100000 0.000000
vn 0.000000 -0.100000 0.000000
vn 0.000000 -0.100000 0.000000
vn 0.000000 -0.100000 0.000000
vn 0.000000 -0.100000 0.000000
vn 0.000000 -0.100000 0.000000
vn 0.100000 -0.000000 0.000000
vn 0.100000 -0.000000 0.000000
vn 0.100000 -0.000000 0.000000
vn 0.100000 -0.000000 0.000000
vn 0.000000 0.100000 0.000000
vn 0.000000 0.100000 0.000000
vn 0.000000 0.100000 0.000000
vn 0.000000 0.100000 0.000000
vn 0.000000 0.100000 0.000000
vn 0.000000 0.100000 0.000000
vn -0.100000 0.000000 0.000000
vn -0.100000 0.000000 0.000000
vn -0.100000 0.000000 0.000000
vn -0.100000 0.000000 0.000000
vn 0.000000 -0.000000 0.100000
vn 0.000000 -0.000000 0.100000
vn 0.000000 -0.000000 0.100000
vn 0.000000 -0.000000 0.100000
vn 0.000000 0.000000 0.100000
vn 0.000000 0.000000 0.100000
vn 0.000000 0.000000 0.100000
vn 0.000000 0.000000 0.100000
vn 0.000000 0.000000 0.100000
vn 0.000000 0.000000 0.100000
vn 0.000000 0.000000 0.100000
vn 0.000000 0.000000 0.100000
vn 0.000000 0.000000 -0.100000
vn 0.000000 0.000000 -0.100000
vn 0.000000 0.000000 -0.100000
vn 0.000000 0.000000 -0.100000
vn 0.000000 0.000000 -0.100000
vn 0.000000 0.000000 -0.100000
vn 0.000000 0.000000 -0.100000
vn 0.000000 0.000000 -0.100000
vn 0.000000 0.100000 0.000000
vn 0.000000 0.100000 0.000000
vn 0.000000 0.100000 0.000000
vn 0.000000 0.100000 0.000000
vn 0.000000 0.100000 0.000000
vn 0.000000 0.100000 0.000000
vn 0.100000 0.000000 0.000000
vn 0.100000 0.000000 0.000000
vn 0.100000 0.000000 0.000000
vn 0.100000 0.000000 0.000000
vn 0.000000 -0.100000 0.000000
vn 0.000000 -0.100000 0.000000
vn 0.000000 -0.100000 0.000000
vn 0.000000 -0.100000 0.000000
vn 0.000000 -0.100000 0.000000
vn 0.000000 -0.100000 0.000000
vn -0.100000 0.000000 0.000000
vn -0.100000 0.000000 0.000000
vn -0.100000 0.000000 0.000000
vn -0.100000 0.000000 0.000000
vn 0.000000 0.000000 0.100000
vn 0.000000 0.000000 0.100000
vn 0.000000 0.000000 0.100000
vn 0.000000 0.000000 0.100000
vn 0.000000 0.000000 0.100000
vn 0.000000 0.000000 0.100000
vn 0.000000 0.000000 0.100000
vn 0.000000 0.000000 0.100000
vn 0.000000 -0.100000 0.000000
vn 0.000000 -0.100000 0.000000
vn 0.000000 -0.100000 0.000000
vn 0.000000 -0.100000 0.000000
vn 0.000000 0.000000 -0.100000
vn 0.000000 0.000000 -0.100000
vn 0.000000 0.000000 -0.100000
vn 0.000000 0.000000 -0.100000
vn 0.100000 -0.000000 0.000000
vn 0.100000 -0.000000 0.000000
vn 0.100000 -0.000000 0.000000
vn 0.100000 -0.000000 0.000000
vn 0.100000 -0.000000 0.000000
vn 0.100000 -0.000000 0.000000
vn 0.100000 -0.000000 0.000000
vn 0.100000 -0.000000 0.000000
vn -0.100000 0.000000 0.000000
vn -0.100000 0.000000 0.000000
vn -0.100000 0.000000 0.000000
vn -0.100000 0.000000 0.000000
vn -0.100000 0.000000 0.000000
vn -0.100000 0.000000 0.000000
vn -0.100000 0.000000 0.000000
vn -0.100000 0.000000 0.000000
vn 0.000000 0.100000 0.000000
vn 0.000000 0.100000 0.000000
vn 0.000000 0.100000 0.000000
vn 0.000000 0.100000 0.000000
usemtl Steel_-_Satin
f 2/1/1 3/2/2 1/3/3
f 1/3/3 3/2/2 4/4/4
f 6/5/5 7/6/6 5/7/7
f 5/7/7 7/6/6 8/8/8
f 4/9/9 9/10/10 1/11/11
f 1/11/11 9/10/10 10/12/12
f 1/11/11 10/12/12 6/13/13
f 6/13/13 10/12/12 7/14/14
f 4/15/15 3/16/16 9/17/17
f 9/17/17 3/16/16 11/18/18
f 8/19/19 12/20/20 5/21/21
f 5/21/21 12/20/20 11/22/22
f 5/21/21 11/22/22 2/23/23
f 2/23/23 11/22/22 3/24/24
f 8/25/25 7/26/26 12/27/27
f 12/27/27 7/26/26 10/28/28
f 10/29/29 9/30/30 12/31/31
f 12/31/31 9/30/30 11/32/32
f 5/33/33 2/34/34 14/35/35
f 14/35/35 2/34/34 13/36/36
f 1/37/37 6/38/38 16/39/39
f 16/39/39 6/38/38 15/40/40
f 16/41/41 18/42/42 17/43/43
f 17/43/43 18/42/42 19/44/44
f 20/45/45 21/46/46 15/47/47
f 15/47/47 21/46/46 22/48/48
f 18/49/49 16/50/50 24/51/51
f 24/51/51 16/50/50 15/52/52
f 24/51/51 15/52/52 23/53/53
f 23/53/53 15/52/52 22/54/54
f 19/55/55 18/56/56 25/57/57
f 25/57/57 18/56/56 24/58/58
f 21/59/59 20/60/60 26/61/61
f 26/61/61 20/60/60 17/62/62
f 26/61/61 17/62/62 25/63/63
f 25/63/63 17/62/62 19/64/64
f 22/65/65 21/66/66 23/67/67
f 23/67/67 21/66/66 26/68/68
f 26/69/69 25/70/70 23/71/71
f 23/71/71 25/70/70 24/72/72
f 17/73/73 20/74/74 28/75/75
f 28/75/75 20/74/74 27/76/76
f 27/77/77 29/78/78 28/79/79
f 28/79/79 29/78/78 30/80/80
f 31/81/81 32/82/82 29/83/83
f 29/83/83 32/82/82 30/84/84
f 32/85/85 1/86/86 30/87/87
f 30/87/87 1/86/86 16/88/88
f 30/87/87 16/88/88 17/89/89
f 13/90/90 2/91/91 32/85/85
f 32/85/85 2/91/91 1/86/86
f 17/89/89 28/92/92 30/87/87
f 27/93/93 20/94/94 29/95/95
f 29/95/95 20/94/94 15/96/96
f 29/95/95 15/96/96 6/97/97
f 29/95/95 6/97/97 31/98/98
f 31/98/98 6/97/97 5/99/99
f 31/98/98 5/99/99 14/100/100
f 31/101/101 14/102/102 32/103/103
f 32/103/103 14/102/102 13/104/104
# 32 vertices
# 104 texture params
# 104 normals
# 60 facets

# 1 groups
